<svg version="1.1" xmlns="http://www.w3.org/2000/svg" xmlns:xlink="http://www.w3.org/1999/xlink" width="128" height="148"><defs/><g><g transform="translate(-326,-110) scale(1,1)"><path fill="#ffffff" stroke="none" d="M 352.5 120 L 416.5 120 Q 433 120 433 136.5 L 433 135.5 Q 433 152 416.5 152 L 352.5 152 Q 336 152 336 135.5 L 336 136.5 Q 336 120 352.5 120 Z"/></g><g transform="translate(-326,-110) scale(1,1)"><path fill="none" stroke="#000000" d="M 352.5 120 L 416.5 120 Q 433 120 433 136.5 L 433 135.5 Q 433 152 416.5 152 L 352.5 152 Q 336 152 336 135.5 L 336 136.5 Q 336 120 352.5 120 Z" stroke-miterlimit="10"/></g><g transform="translate(-326,-110) scale(1,1)"><g><path fill="none" stroke="none"/><text fill="#000000" stroke="none" font-family="Arial" font-size="13px" font-style="normal" font-weight="normal" text-decoration="none" x="345.5" y="142.5">首次启动应用</text></g></g><g transform="translate(-326,-110) scale(1,1)"><rect fill="#ffffff" stroke="none" x="360" y="216" width="84" height="32"/></g><g transform="translate(-326,-110) scale(1,1)"><path fill="none" stroke="#000000" d="M 360 216 L 444 216 L 444 248 L 360 248 L 360 216 Z Z" stroke-miterlimit="10"/></g><g transform="translate(-326,-110) scale(1,1)"><g><path fill="none" stroke="none"/><text fill="#000000" stroke="none" font-family="Arial" font-size="13px" font-style="normal" font-weight="normal" text-decoration="none" x="369.5" y="238.5">输入用户名</text></g></g></g></svg>