<svg version="1.1" xmlns="http://www.w3.org/2000/svg" xmlns:xlink="http://www.w3.org/1999/xlink" width="324.3984375" height="332"><defs/><g><g transform="translate(-262,-302) scale(1,1)"><rect fill="#C0C0C0" stroke="none" x="311" y="319" width="221.09423828125" height="105" opacity="0.2"/></g><g transform="translate(-262,-302) scale(1,1)"><rect fill="#ffffff" stroke="none" x="304" y="312" width="221.09423828125" height="105"/></g><g transform="translate(-262,-302) scale(1,1)"><path fill="none" stroke="#000000" d="M 304 312 L 525.09423828125 312 L 525.09423828125 417 L 304 417 L 304 312 Z Z" stroke-miterlimit="10"/></g><g transform="translate(-262,-302) scale(1,1)"><path fill="none" stroke="#000000" d="M 304 350 L 525.09423828125 350" stroke-miterlimit="10"/></g><g transform="translate(-262,-302) scale(1,1)"><g><path fill="none" stroke="none"/><text fill="#000000" stroke="none" font-family="Arial" font-size="13px" font-style="normal" font-weight="normal" text-decoration="none" x="382.38671875" y="329.5">«interface»</text></g></g><g transform="translate(-262,-302) scale(1,1)"><g><path fill="none" stroke="none"/><text fill="#000000" stroke="none" font-family="Arial" font-size="13px" font-style="normal" font-weight="bold" text-decoration="none" x="376.607177734375" y="344.5">Authorization</text></g></g><g transform="translate(-262,-302) scale(1,1)"><g><path fill="none" stroke="none"/><text fill="#000000" stroke="none" font-family="Arial" font-size="13px" font-style="normal" font-weight="normal" text-decoration="none" x="309" y="367.5">+ConnectAuth(url: string): string</text></g></g><g transform="translate(-262,-302) scale(1,1)"><g><path fill="none" stroke="none"/><text fill="#000000" stroke="none" font-family="Arial" font-size="13px" font-style="normal" font-weight="normal" text-decoration="none" x="309" y="382.5">+AddAuth(data: *DataPacket): bool</text></g></g><g transform="translate(-262,-302) scale(1,1)"><g><path fill="none" stroke="none"/><text fill="#000000" stroke="none" font-family="Arial" font-size="13px" font-style="normal" font-weight="normal" text-decoration="none" x="309" y="397.5">+VerifyAuth(data: *DataPacket): bool</text></g></g><g transform="translate(-262,-302) scale(1,1)"><g><path fill="none" stroke="none"/><text fill="#000000" stroke="none" font-family="Arial" font-size="13px" font-style="normal" font-weight="normal" text-decoration="none" x="309" y="412.5">+EnableAuth(): bool</text></g></g><g transform="translate(-262,-302) scale(1,1)"><rect fill="#C0C0C0" stroke="none" x="503" y="495" width="80.3984375" height="132" opacity="0.2"/></g><g transform="translate(-262,-302) scale(1,1)"><rect fill="#ffffff" stroke="none" x="496" y="488" width="80.3984375" height="132"/></g><g transform="translate(-262,-302) scale(1,1)"><path fill="none" stroke="#000000" d="M 496 488 L 576.3984375 488 L 576.3984375 620 L 496 620 L 496 488 Z Z" stroke-miterlimit="10"/></g><g transform="translate(-262,-302) scale(1,1)"><path fill="none" stroke="#000000" d="M 496 513 L 576.3984375 513" stroke-miterlimit="10"/></g><g transform="translate(-262,-302) scale(1,1)"><path fill="none" stroke="#000000" d="M 496 596 L 576.3984375 596" stroke-miterlimit="10"/></g><g transform="translate(-262,-302) scale(1,1)"><g><path fill="none" stroke="none"/><text fill="#000000" stroke="none" font-family="Arial" font-size="13px" font-style="normal" font-weight="bold" text-decoration="none" x="502.597900390625" y="507.5">DataPacket</text></g></g><g transform="translate(-262,-302) scale(1,1)"><g><path fill="none" stroke="none"/><text fill="#000000" stroke="none" font-family="Arial" font-size="13px" font-style="normal" font-weight="normal" text-decoration="none" x="501" y="530.5">+Req</text></g></g><g transform="translate(-262,-302) scale(1,1)"><g><path fill="none" stroke="none"/><text fill="#000000" stroke="none" font-family="Arial" font-size="13px" font-style="normal" font-weight="normal" text-decoration="none" x="501" y="545.5">+Method</text></g></g><g transform="translate(-262,-302) scale(1,1)"><g><path fill="none" stroke="none"/><text fill="#000000" stroke="none" font-family="Arial" font-size="13px" font-style="normal" font-weight="normal" text-decoration="none" x="501" y="560.5">+Nonce</text></g></g><g transform="translate(-262,-302) scale(1,1)"><g><path fill="none" stroke="none"/><text fill="#000000" stroke="none" font-family="Arial" font-size="13px" font-style="normal" font-weight="normal" text-decoration="none" x="501" y="575.5">+Timestamp</text></g></g><g transform="translate(-262,-302) scale(1,1)"><g><path fill="none" stroke="none"/><text fill="#000000" stroke="none" font-family="Arial" font-size="13px" font-style="normal" font-weight="normal" text-decoration="none" x="501" y="590.5">+Data</text></g></g><g transform="translate(-262,-302) scale(1,1)"><rect fill="#C0C0C0" stroke="none" x="279" y="559" width="140.87255859375" height="72" opacity="0.2"/></g><g transform="translate(-262,-302) scale(1,1)"><rect fill="#ffffff" stroke="none" x="272" y="552" width="140.87255859375" height="72"/></g><g transform="translate(-262,-302) scale(1,1)"><path fill="none" stroke="#000000" d="M 272 552 L 412.87255859375 552 L 412.87255859375 624 L 272 624 L 272 552 Z Z" stroke-miterlimit="10"/></g><g transform="translate(-262,-302) scale(1,1)"><path fill="none" stroke="#000000" d="M 272 577 L 412.87255859375 577" stroke-miterlimit="10"/></g><g transform="translate(-262,-302) scale(1,1)"><path fill="none" stroke="#000000" d="M 272 615 L 412.87255859375 615" stroke-miterlimit="10"/></g><g transform="translate(-262,-302) scale(1,1)"><g><path fill="none" stroke="none"/><text fill="#000000" stroke="none" font-family="Arial" font-size="13px" font-style="normal" font-weight="bold" text-decoration="none" x="325.818115234375" y="571.5">Client</text></g></g><g transform="translate(-262,-302) scale(1,1)"><g><path fill="none" stroke="none"/><text fill="#000000" stroke="none" font-family="Arial" font-size="13px" font-style="normal" font-weight="normal" text-decoration="none" x="277" y="594.5">+auth: Authorization</text></g></g><g transform="translate(-262,-302) scale(1,1)"><g><path fill="none" stroke="none"/><text fill="#000000" stroke="none" font-family="Arial" font-size="13px" font-style="normal" font-weight="normal" text-decoration="none" x="277" y="609.5">+ws: *websocket.Conn</text></g></g></g></svg>