<svg version="1.1" xmlns="http://www.w3.org/2000/svg" xmlns:xlink="http://www.w3.org/1999/xlink" width="378" height="338"><defs/><g><g transform="translate(-54,-108) scale(1,1)"><rect fill="#C0C0C0" stroke="none" x="71" y="215" width="88" height="57" opacity="0.2"/></g><g transform="translate(-54,-108) scale(1,1)"><rect fill="#ffffff" stroke="none" x="64" y="208" width="88" height="57"/></g><g transform="translate(-54,-108) scale(1,1)"><path fill="none" stroke="#000000" d="M 64 208 L 152 208 L 152 265 L 64 265 L 64 208 Z Z" stroke-miterlimit="10"/></g><g transform="translate(-54,-108) scale(1,1)"><path fill="none" stroke="#000000" d="M 64 233 L 152 233" stroke-miterlimit="10"/></g><g transform="translate(-54,-108) scale(1,1)"><path fill="none" stroke="#000000" d="M 64 243 L 152 243" stroke-miterlimit="10"/></g><g transform="translate(-54,-108) scale(1,1)"><g><path fill="none" stroke="none"/><text fill="#000000" stroke="none" font-family="Arial" font-size="13px" font-style="normal" font-weight="bold" text-decoration="none" x="93.911376953125" y="227.5">main</text></g></g><g transform="translate(-54,-108) scale(1,1)"><g><path fill="none" stroke="none"/><text fill="#000000" stroke="none" font-family="Arial" font-size="13px" font-style="normal" font-weight="normal" text-decoration="none" x="69" y="260.5">+openw()</text></g></g><g transform="translate(-54,-108) scale(1,1)"><rect fill="#C0C0C0" stroke="none" x="187" y="125" width="27.19999999999999" height="15" opacity="0.2"/></g><g transform="translate(-54,-108) scale(1,1)"><rect fill="#C0C0C0" stroke="none" x="187" y="139" width="68" height="25" opacity="0.2"/></g><g transform="translate(-54,-108) scale(1,1)"><rect fill="#ffffff" stroke="none" x="180" y="133" width="68" height="24"/></g><g transform="translate(-54,-108) scale(1,1)"><path fill="none" stroke="#000000" d="M 180 133 L 248 133 L 248 157 L 180 157 L 180 133 Z Z" stroke-miterlimit="10"/></g><g transform="translate(-54,-108) scale(1,1)"><rect fill="#ffffff" stroke="none" x="180" y="118" width="27.19999999999999" height="15"/></g><g transform="translate(-54,-108) scale(1,1)"><path fill="none" stroke="#000000" d="M 180 118 L 207.2 118 L 207.2 133 L 180 133 L 180 118 Z Z" stroke-miterlimit="10"/></g><g transform="translate(-54,-108) scale(1,1)"><rect fill="#ffffff" stroke="none" x="180" y="132" width="68" height="25"/></g><g transform="translate(-54,-108) scale(1,1)"><path fill="none" stroke="#000000" d="M 180 132 L 248 132 L 248 157 L 180 157 L 180 132 Z Z" stroke-miterlimit="10"/></g><g transform="translate(-54,-108) scale(1,1)"><g><path fill="none" stroke="none"/><text fill="#000000" stroke="none" font-family="Arial" font-size="13px" font-style="normal" font-weight="bold" text-decoration="none" x="194.845947265625" y="152.5">openw</text></g></g><g transform="translate(-54,-108) scale(1,1)"><rect fill="#C0C0C0" stroke="none" x="223" y="215" width="78" height="147" opacity="0.2"/></g><g transform="translate(-54,-108) scale(1,1)"><rect fill="#ffffff" stroke="none" x="216" y="208" width="78" height="147"/></g><g transform="translate(-54,-108) scale(1,1)"><path fill="none" stroke="#000000" d="M 216 208 L 294 208 L 294 355 L 216 355 L 216 208 Z Z" stroke-miterlimit="10"/></g><g transform="translate(-54,-108) scale(1,1)"><path fill="none" stroke="#000000" d="M 216 233 L 294 233" stroke-miterlimit="10"/></g><g transform="translate(-54,-108) scale(1,1)"><path fill="none" stroke="#000000" d="M 216 346 L 294 346" stroke-miterlimit="10"/></g><g transform="translate(-54,-108) scale(1,1)"><g><path fill="none" stroke="none"/><text fill="#000000" stroke="none" font-family="Arial" font-size="13px" font-style="normal" font-weight="bold" text-decoration="none" x="231.87548828125" y="227.5">appcmd</text></g></g><g transform="translate(-54,-108) scale(1,1)"><g><path fill="none" stroke="none"/><text fill="#000000" stroke="none" font-family="Arial" font-size="13px" font-style="normal" font-weight="normal" text-decoration="none" x="221" y="250.5">+new</text></g></g><g transform="translate(-54,-108) scale(1,1)"><g><path fill="none" stroke="none"/><text fill="#000000" stroke="none" font-family="Arial" font-size="13px" font-style="normal" font-weight="normal" text-decoration="none" x="221" y="265.5">+update</text></g></g><g transform="translate(-54,-108) scale(1,1)"><g><path fill="none" stroke="none"/><text fill="#000000" stroke="none" font-family="Arial" font-size="13px" font-style="normal" font-weight="normal" text-decoration="none" x="221" y="280.5">+upgrade</text></g></g><g transform="translate(-54,-108) scale(1,1)"><g><path fill="none" stroke="none"/><text fill="#000000" stroke="none" font-family="Arial" font-size="13px" font-style="normal" font-weight="normal" text-decoration="none" x="221" y="295.5">+run</text></g></g><g transform="translate(-54,-108) scale(1,1)"><g><path fill="none" stroke="none"/><text fill="#000000" stroke="none" font-family="Arial" font-size="13px" font-style="normal" font-weight="normal" text-decoration="none" x="221" y="310.5">+build</text></g></g><g transform="translate(-54,-108) scale(1,1)"><g><path fill="none" stroke="none"/><text fill="#000000" stroke="none" font-family="Arial" font-size="13px" font-style="normal" font-weight="normal" text-decoration="none" x="221" y="325.5">+wallet</text></g></g><g transform="translate(-54,-108) scale(1,1)"><g><path fill="none" stroke="none"/><text fill="#000000" stroke="none" font-family="Arial" font-size="13px" font-style="normal" font-weight="normal" text-decoration="none" x="221" y="340.5">+user</text></g></g><g transform="translate(-54,-108) scale(1,1)"><path fill="none" stroke="#000000" d="M 234 207 L 220 158" stroke-miterlimit="10"/></g><g transform="translate(-54,-108) scale(1,1)"><path fill="#FFFFFF" stroke="none" d="M 214.92304789528166 164.73066763348575 C 214.92304789528166 160.86467403348576 218.05705429528166 157.73066763348575 221.92304789528166 157.73066763348575 C 225.78904149528165 157.73066763348575 228.92304789528166 160.86467403348576 228.92304789528166 164.73066763348575 C 228.92304789528166 168.59666123348575 225.78904149528165 171.73066763348575 221.92304789528166 171.73066763348575 C 218.05705429528166 171.73066763348575 214.92304789528166 168.59666123348575 214.92304789528166 164.73066763348575 Z"/></g><g transform="translate(-54,-108) scale(1,1)"><path fill="none" stroke="#000000" d="M 214.92304789528166 164.73066763348575 C 214.92304789528166 160.86467403348576 218.05705429528166 157.73066763348575 221.92304789528166 157.73066763348575 C 225.78904149528165 157.73066763348575 228.92304789528166 160.86467403348576 228.92304789528166 164.73066763348575 C 228.92304789528166 168.59666123348575 225.78904149528165 171.73066763348575 221.92304789528166 171.73066763348575 C 218.05705429528166 171.73066763348575 214.92304789528166 168.59666123348575 214.92304789528166 164.73066763348575 Z" stroke-miterlimit="10"/></g><g transform="translate(-54,-108) scale(1,1)"><path fill="none" stroke="#000000" d="M 223.84609579056328 171.46133526697153 L 220 158" stroke-miterlimit="10"/></g><g transform="translate(-54,-108) scale(1,1)"><path fill="none" stroke="#000000" d="M 228.6537155287674 162.8076197382041 L 215.1923802617959 166.6537155287674" stroke-miterlimit="10"/></g><g transform="translate(-54,-108) scale(1,1)"><path fill="none" stroke="#000000" d="M 139 207 L 192 158" stroke-miterlimit="10"/></g><g transform="translate(-54,-108) scale(1,1)"><path fill="#FFFFFF" stroke="none" d="M 179.8600955220718 162.75198715883928 C 179.8600955220718 158.8859935588393 182.9941019220718 155.75198715883928 186.8600955220718 155.75198715883928 C 190.72608912207178 155.75198715883928 193.8600955220718 158.8859935588393 193.8600955220718 162.75198715883928 C 193.8600955220718 166.61798075883928 190.72608912207178 169.75198715883928 186.8600955220718 169.75198715883928 C 182.9941019220718 169.75198715883928 179.8600955220718 166.61798075883928 179.8600955220718 162.75198715883928 Z"/></g><g transform="translate(-54,-108) scale(1,1)"><path fill="none" stroke="#000000" d="M 179.8600955220718 162.75198715883928 C 179.8600955220718 158.8859935588393 182.9941019220718 155.75198715883928 186.8600955220718 155.75198715883928 C 190.72608912207178 155.75198715883928 193.8600955220718 158.8859935588393 193.8600955220718 162.75198715883928 C 193.8600955220718 166.61798075883928 190.72608912207178 169.75198715883928 186.8600955220718 169.75198715883928 C 182.9941019220718 169.75198715883928 179.8600955220718 166.61798075883928 179.8600955220718 162.75198715883928 Z" stroke-miterlimit="10"/></g><g transform="translate(-54,-108) scale(1,1)"><path fill="none" stroke="#000000" d="M 181.72019104414358 167.50397431767857 L 192 158" stroke-miterlimit="10"/></g><g transform="translate(-54,-108) scale(1,1)"><path fill="none" stroke="#000000" d="M 191.61208268091107 167.8918916367675 L 182.1081083632325 157.61208268091107" stroke-miterlimit="10"/></g><g transform="translate(-54,-108) scale(1,1)"><rect fill="#C0C0C0" stroke="none" x="303" y="399" width="72" height="44" opacity="0.2"/></g><g transform="translate(-54,-108) scale(1,1)"><rect fill="#ffffff" stroke="none" x="296" y="392" width="72" height="44"/></g><g transform="translate(-54,-108) scale(1,1)"><path fill="none" stroke="#000000" d="M 296 392 L 368 392 L 368 436 L 296 436 L 296 392 Z Z" stroke-miterlimit="10"/></g><g transform="translate(-54,-108) scale(1,1)"><path fill="none" stroke="#000000" d="M 296 417 L 368 417" stroke-miterlimit="10"/></g><g transform="translate(-54,-108) scale(1,1)"><path fill="none" stroke="#000000" d="M 296 427 L 368 427" stroke-miterlimit="10"/></g><g transform="translate(-54,-108) scale(1,1)"><g><path fill="none" stroke="none"/><text fill="#000000" stroke="none" font-family="Arial" font-size="13px" font-style="normal" font-weight="bold" text-decoration="none" x="303.102294921875" y="411.5">walletcmd</text></g></g><g transform="translate(-54,-108) scale(1,1)"><path fill="none" stroke="#000000" d="M 319 391 L 295 350" stroke-miterlimit="10"/></g><g transform="translate(-54,-108) scale(1,1)"><path fill="none" stroke="#000000" d="M 303.76684670279394 356.64397463042354 L 295 350 L 296.50109723796464 360.89709626837237" stroke-miterlimit="10"/></g><g transform="translate(-54,-108) scale(1,1)"><rect fill="#C0C0C0" stroke="none" x="151" y="399" width="63.18994140625" height="44" opacity="0.2"/></g><g transform="translate(-54,-108) scale(1,1)"><rect fill="#ffffff" stroke="none" x="144" y="392" width="63.18994140625" height="44"/></g><g transform="translate(-54,-108) scale(1,1)"><path fill="none" stroke="#000000" d="M 144 392 L 207.18994140625 392 L 207.18994140625 436 L 144 436 L 144 392 Z Z" stroke-miterlimit="10"/></g><g transform="translate(-54,-108) scale(1,1)"><path fill="none" stroke="#000000" d="M 144 417 L 207.18994140625 417" stroke-miterlimit="10"/></g><g transform="translate(-54,-108) scale(1,1)"><path fill="none" stroke="#000000" d="M 144 427 L 207.18994140625 427" stroke-miterlimit="10"/></g><g transform="translate(-54,-108) scale(1,1)"><g><path fill="none" stroke="none"/><text fill="#000000" stroke="none" font-family="Arial" font-size="13px" font-style="normal" font-weight="bold" text-decoration="none" x="150.6708984375" y="411.5">usercmd</text></g></g><g transform="translate(-54,-108) scale(1,1)"><path fill="none" stroke="#000000" d="M 189 391 L 215 348" stroke-miterlimit="10"/></g><g transform="translate(-54,-108) scale(1,1)"><path fill="none" stroke="#000000" d="M 213.3438544728923 358.8746118088436 L 215 348 L 206.13941651434575 354.518440019955" stroke-miterlimit="10"/></g><g transform="translate(-54,-108) scale(1,1)"><rect fill="#C0C0C0" stroke="none" x="359" y="215" width="70" height="44" opacity="0.2"/></g><g transform="translate(-54,-108) scale(1,1)"><rect fill="#ffffff" stroke="none" x="352" y="208" width="70" height="44"/></g><g transform="translate(-54,-108) scale(1,1)"><path fill="none" stroke="#000000" d="M 352 208 L 422 208 L 422 252 L 352 252 L 352 208 Z Z" stroke-miterlimit="10"/></g><g transform="translate(-54,-108) scale(1,1)"><path fill="none" stroke="#000000" d="M 352 233 L 422 233" stroke-miterlimit="10"/></g><g transform="translate(-54,-108) scale(1,1)"><path fill="none" stroke="#000000" d="M 352 243 L 422 243" stroke-miterlimit="10"/></g><g transform="translate(-54,-108) scale(1,1)"><g><path fill="none" stroke="none"/><text fill="#000000" stroke="none" font-family="Arial" font-size="13px" font-style="normal" font-weight="bold" text-decoration="none" x="359.181396484375" y="227.5">chaincmd</text></g></g><g transform="translate(-54,-108) scale(1,1)"><path fill="none" stroke="#000000" d="M 351 211 L 249 156" stroke-miterlimit="10"/></g><g transform="translate(-54,-108) scale(1,1)"><path fill="#FFFFFF" stroke="none" d="M 248.16135702191312 159.32230035495314 C 248.16135702191312 155.45630675495315 251.2953634219131 152.32230035495314 255.1613570219131 152.32230035495314 C 259.02735062191306 152.32230035495314 262.1613570219131 155.45630675495315 262.1613570219131 159.32230035495314 C 262.1613570219131 163.18829395495314 259.02735062191306 166.32230035495314 255.1613570219131 166.32230035495314 C 251.2953634219131 166.32230035495314 248.16135702191312 163.18829395495314 248.16135702191312 159.32230035495314 Z"/></g><g transform="translate(-54,-108) scale(1,1)"><path fill="none" stroke="#000000" d="M 248.16135702191312 159.32230035495314 C 248.16135702191312 155.45630675495315 251.2953634219131 152.32230035495314 255.1613570219131 152.32230035495314 C 259.02735062191306 152.32230035495314 262.1613570219131 155.45630675495315 262.1613570219131 159.32230035495314 C 262.1613570219131 163.18829395495314 259.02735062191306 166.32230035495314 255.1613570219131 166.32230035495314 C 251.2953634219131 166.32230035495314 248.16135702191312 163.18829395495314 248.16135702191312 159.32230035495314 Z" stroke-miterlimit="10"/></g><g transform="translate(-54,-108) scale(1,1)"><path fill="none" stroke="#000000" d="M 261.32271404382624 162.6446007099063 L 249 156" stroke-miterlimit="10"/></g><g transform="translate(-54,-108) scale(1,1)"><path fill="none" stroke="#000000" d="M 258.4836573768663 153.16094333304002 L 251.83905666695998 165.48365737686626" stroke-miterlimit="10"/></g></g></svg>