<svg version="1.1" xmlns="http://www.w3.org/2000/svg" xmlns:xlink="http://www.w3.org/1999/xlink" width="673" height="608"><defs/><g><g transform="translate(-54,-214) scale(1,1)"><rect fill="#C0C0C0" stroke="none" x="257" y="231" width="334" height="107" opacity="0.2"/></g><g transform="translate(-54,-214) scale(1,1)"><rect fill="#ffffff" stroke="none" x="250" y="224" width="334" height="107"/></g><g transform="translate(-54,-214) scale(1,1)"><path fill="none" stroke="#000000" d="M 250 224 L 584 224 L 584 331 L 250 331 L 250 224 Z Z" stroke-miterlimit="10"/></g><g transform="translate(-54,-214) scale(1,1)"><rect fill="#ffffff" stroke="none" x="240" y="231" width="20" height="10"/></g><g transform="translate(-54,-214) scale(1,1)"><path fill="none" stroke="#000000" d="M 240 231 L 260 231 L 260 241 L 240 241 L 240 231 Z Z" stroke-miterlimit="10"/></g><g transform="translate(-54,-214) scale(1,1)"><rect fill="#ffffff" stroke="none" x="240" y="251" width="20" height="10"/></g><g transform="translate(-54,-214) scale(1,1)"><path fill="none" stroke="#000000" d="M 240 251 L 260 251 L 260 261 L 240 261 L 240 251 Z Z" stroke-miterlimit="10"/></g><g transform="translate(-54,-214) scale(1,1)"><path fill="none" stroke="#000000" d="M 260 249 L 584 249" stroke-miterlimit="10"/></g><g transform="translate(-54,-214) scale(1,1)"><g><path fill="none" stroke="none"/><text fill="#000000" stroke="none" font-family="Arial" font-size="13px" font-style="normal" font-weight="bold" text-decoration="none" x="389.5" y="243.5">公有链网络</text></g></g><g transform="translate(-54,-214) scale(1,1)"><g><path fill="none" stroke="none"/><text fill="#000000" stroke="none" font-family="Arial" font-size="13px" font-style="normal" font-weight="normal" text-decoration="none" x="265" y="266.5">+Ethereum</text></g></g><g transform="translate(-54,-214) scale(1,1)"><g><path fill="none" stroke="none"/><text fill="#000000" stroke="none" font-family="Arial" font-size="13px" font-style="normal" font-weight="normal" text-decoration="none" x="265" y="281.5">+Bitcoin</text></g></g><g transform="translate(-54,-214) scale(1,1)"><g><path fill="none" stroke="none"/><text fill="#000000" stroke="none" font-family="Arial" font-size="13px" font-style="normal" font-weight="normal" text-decoration="none" x="265" y="296.5">+Litcoin</text></g></g><g transform="translate(-54,-214) scale(1,1)"><g><path fill="none" stroke="none"/><text fill="#000000" stroke="none" font-family="Arial" font-size="13px" font-style="normal" font-weight="normal" text-decoration="none" x="265" y="311.5">+Bitshares</text></g></g><g transform="translate(-54,-214) scale(1,1)"><g><path fill="none" stroke="none"/><text fill="#000000" stroke="none" font-family="Arial" font-size="13px" font-style="normal" font-weight="normal" text-decoration="none" x="265" y="326.5">+更多...</text></g></g><g transform="translate(-54,-214) scale(1,1)"><path fill="#C0C0C0" stroke="none" d="M 159 569 L 305 569 L 305 675 L 159 675" opacity="0.2"/></g><g transform="translate(-54,-214) scale(1,1)"><path fill="#C0C0C0" stroke="none" d="M 159 569 L 169 559 L 315 559 L 305 569" opacity="0.2"/></g><g transform="translate(-54,-214) scale(1,1)"><path fill="#C0C0C0" stroke="none" d="M 315 559 L 305 569 L 305 675 L 315 665" opacity="0.2"/></g><g transform="translate(-54,-214) scale(1,1)"><path fill="#ffffff" stroke="none" d="M 152 562 L 298 562 L 298 668 L 152 668"/></g><g transform="translate(-54,-214) scale(1,1)"><path fill="#ffffff" stroke="none" d="M 152 562 L 162 552 L 308 552 L 298 562"/></g><g transform="translate(-54,-214) scale(1,1)"><path fill="#ffffff" stroke="none" d="M 308 552 L 298 562 L 298 668 L 308 658"/></g><g transform="translate(-54,-214) scale(1,1)"><path fill="none" stroke="#000000" d="M 152 562 L 298 562 L 298 668 L 152 668 L 152 562" stroke-miterlimit="10"/></g><g transform="translate(-54,-214) scale(1,1)"><path fill="none" stroke="#000000" d="M 152 562 L 162 552 L 308 552 L 298 562 L 152 562" stroke-miterlimit="10"/></g><g transform="translate(-54,-214) scale(1,1)"><path fill="none" stroke="#000000" d="M 308 552 L 298 562 L 298 668 L 308 658 L 308 552" stroke-miterlimit="10"/></g><g transform="translate(-54,-214) scale(1,1)"><path fill="none" stroke="#000000" d="M 152 587 L 299 587" stroke-miterlimit="10"/></g><g transform="translate(-54,-214) scale(1,1)"><g><path fill="none" stroke="none"/><text fill="#000000" stroke="none" font-family="Arial" font-size="13px" font-style="normal" font-weight="bold" text-decoration="none" x="179" y="581.5">OpenWallet节点</text></g></g><g transform="translate(-54,-214) scale(1,1)"><g><path fill="none" stroke="none"/><text fill="#000000" stroke="none" font-family="Arial" font-size="13px" font-style="normal" font-weight="normal" text-decoration="none" x="157" y="604.5">+部署智能合约</text></g></g><g transform="translate(-54,-214) scale(1,1)"><g><path fill="none" stroke="none"/><text fill="#000000" stroke="none" font-family="Arial" font-size="13px" font-style="normal" font-weight="normal" text-decoration="none" x="157" y="619.5">+处理合约交易状态</text></g></g><g transform="translate(-54,-214) scale(1,1)"><g><path fill="none" stroke="none"/><text fill="#000000" stroke="none" font-family="Arial" font-size="13px" font-style="normal" font-weight="normal" text-decoration="none" x="157" y="634.5">+解码编码协议数据包</text></g></g><g transform="translate(-54,-214) scale(1,1)"><g><path fill="none" stroke="none"/><text fill="#000000" stroke="none" font-family="Arial" font-size="13px" font-style="normal" font-weight="normal" text-decoration="none" x="157" y="649.5">+自定义授权配置</text></g></g><g transform="translate(-54,-214) scale(1,1)"><g><path fill="none" stroke="none"/><text fill="#000000" stroke="none" font-family="Arial" font-size="13px" font-style="normal" font-weight="normal" text-decoration="none" x="157" y="664.5">+自定义接入区块链协议</text></g></g><g transform="translate(-54,-214) scale(1,1)"><path fill="none" stroke="#000000" d="M 245 551 L 272 448 L 367 332" stroke-miterlimit="10" stroke-dasharray="3"/></g><g transform="translate(-54,-214) scale(1,1)"><path fill="#FFFFFF" stroke="none" d="M 360.63531142913405 353.0592198192594 L 367 332 L 347.6083684107037 342.39060269209665"/></g><g transform="translate(-54,-214) scale(1,1)"><path fill="none" stroke="#000000" d="M 360.63531142913405 353.0592198192594 L 367 332 L 347.6083684107037 342.39060269209665 L 360.63531142913405 353.0592198192594" stroke-miterlimit="10"/></g><g transform="translate(-54,-214) scale(1,1)"><g><path fill="none" stroke="none"/><text fill="#000000" stroke="none" font-family="Arial" font-size="13px" font-style="normal" font-weight="normal" text-decoration="none" x="213.5" y="444.5">+监听</text></g></g><g transform="translate(-54,-214) scale(1,1)"><path fill="#C0C0C0" stroke="none" d="M 351 401 L 497 401 L 497 507 L 351 507" opacity="0.2"/></g><g transform="translate(-54,-214) scale(1,1)"><path fill="#C0C0C0" stroke="none" d="M 351 401 L 361 391 L 507 391 L 497 401" opacity="0.2"/></g><g transform="translate(-54,-214) scale(1,1)"><path fill="#C0C0C0" stroke="none" d="M 507 391 L 497 401 L 497 507 L 507 497" opacity="0.2"/></g><g transform="translate(-54,-214) scale(1,1)"><path fill="#ffffff" stroke="none" d="M 344 394 L 490 394 L 490 500 L 344 500"/></g><g transform="translate(-54,-214) scale(1,1)"><path fill="#ffffff" stroke="none" d="M 344 394 L 354 384 L 500 384 L 490 394"/></g><g transform="translate(-54,-214) scale(1,1)"><path fill="#ffffff" stroke="none" d="M 500 384 L 490 394 L 490 500 L 500 490"/></g><g transform="translate(-54,-214) scale(1,1)"><path fill="none" stroke="#000000" d="M 344 394 L 490 394 L 490 500 L 344 500 L 344 394" stroke-miterlimit="10"/></g><g transform="translate(-54,-214) scale(1,1)"><path fill="none" stroke="#000000" d="M 344 394 L 354 384 L 500 384 L 490 394 L 344 394" stroke-miterlimit="10"/></g><g transform="translate(-54,-214) scale(1,1)"><path fill="none" stroke="#000000" d="M 500 384 L 490 394 L 490 500 L 500 490 L 500 384" stroke-miterlimit="10"/></g><g transform="translate(-54,-214) scale(1,1)"><path fill="none" stroke="#000000" d="M 344 419 L 491 419" stroke-miterlimit="10"/></g><g transform="translate(-54,-214) scale(1,1)"><g><path fill="none" stroke="none"/><text fill="#000000" stroke="none" font-family="Arial" font-size="13px" font-style="normal" font-weight="bold" text-decoration="none" x="371" y="413.5">OpenWallet节点</text></g></g><g transform="translate(-54,-214) scale(1,1)"><g><path fill="none" stroke="none"/><text fill="#000000" stroke="none" font-family="Arial" font-size="13px" font-style="normal" font-weight="normal" text-decoration="none" x="349" y="436.5">+部署智能合约</text></g></g><g transform="translate(-54,-214) scale(1,1)"><g><path fill="none" stroke="none"/><text fill="#000000" stroke="none" font-family="Arial" font-size="13px" font-style="normal" font-weight="normal" text-decoration="none" x="349" y="451.5">+处理合约交易状态</text></g></g><g transform="translate(-54,-214) scale(1,1)"><g><path fill="none" stroke="none"/><text fill="#000000" stroke="none" font-family="Arial" font-size="13px" font-style="normal" font-weight="normal" text-decoration="none" x="349" y="466.5">+解码编码协议数据包</text></g></g><g transform="translate(-54,-214) scale(1,1)"><g><path fill="none" stroke="none"/><text fill="#000000" stroke="none" font-family="Arial" font-size="13px" font-style="normal" font-weight="normal" text-decoration="none" x="349" y="481.5">+自定义授权配置</text></g></g><g transform="translate(-54,-214) scale(1,1)"><g><path fill="none" stroke="none"/><text fill="#000000" stroke="none" font-family="Arial" font-size="13px" font-style="normal" font-weight="normal" text-decoration="none" x="349" y="496.5">+自定义接入区块链协议</text></g></g><g transform="translate(-54,-214) scale(1,1)"><path fill="none" stroke="#000000" d="M 418 383 L 415 332" stroke-miterlimit="10" stroke-dasharray="3"/></g><g transform="translate(-54,-214) scale(1,1)"><path fill="#FFFFFF" stroke="none" d="M 424.59805303066184 351.79589295840435 L 415 332 L 407.7890382336384 352.7846585346998"/></g><g transform="translate(-54,-214) scale(1,1)"><path fill="none" stroke="#000000" d="M 424.59805303066184 351.79589295840435 L 415 332 L 407.7890382336384 352.7846585346998 L 424.59805303066184 351.79589295840435" stroke-miterlimit="10"/></g><g transform="translate(-54,-214) scale(1,1)"><g><path fill="none" stroke="none"/><text fill="#000000" stroke="none" font-family="Arial" font-size="13px" font-style="normal" font-weight="normal" text-decoration="none" x="368.5" y="377.5">+监听</text></g></g><g transform="translate(-54,-214) scale(1,1)"><path fill="#C0C0C0" stroke="none" d="M 567 569 L 713 569 L 713 675 L 567 675" opacity="0.2"/></g><g transform="translate(-54,-214) scale(1,1)"><path fill="#C0C0C0" stroke="none" d="M 567 569 L 577 559 L 723 559 L 713 569" opacity="0.2"/></g><g transform="translate(-54,-214) scale(1,1)"><path fill="#C0C0C0" stroke="none" d="M 723 559 L 713 569 L 713 675 L 723 665" opacity="0.2"/></g><g transform="translate(-54,-214) scale(1,1)"><path fill="#ffffff" stroke="none" d="M 560 562 L 706 562 L 706 668 L 560 668"/></g><g transform="translate(-54,-214) scale(1,1)"><path fill="#ffffff" stroke="none" d="M 560 562 L 570 552 L 716 552 L 706 562"/></g><g transform="translate(-54,-214) scale(1,1)"><path fill="#ffffff" stroke="none" d="M 716 552 L 706 562 L 706 668 L 716 658"/></g><g transform="translate(-54,-214) scale(1,1)"><path fill="none" stroke="#000000" d="M 560 562 L 706 562 L 706 668 L 560 668 L 560 562" stroke-miterlimit="10"/></g><g transform="translate(-54,-214) scale(1,1)"><path fill="none" stroke="#000000" d="M 560 562 L 570 552 L 716 552 L 706 562 L 560 562" stroke-miterlimit="10"/></g><g transform="translate(-54,-214) scale(1,1)"><path fill="none" stroke="#000000" d="M 716 552 L 706 562 L 706 668 L 716 658 L 716 552" stroke-miterlimit="10"/></g><g transform="translate(-54,-214) scale(1,1)"><path fill="none" stroke="#000000" d="M 560 587 L 707 587" stroke-miterlimit="10"/></g><g transform="translate(-54,-214) scale(1,1)"><g><path fill="none" stroke="none"/><text fill="#000000" stroke="none" font-family="Arial" font-size="13px" font-style="normal" font-weight="bold" text-decoration="none" x="587" y="581.5">OpenWallet节点</text></g></g><g transform="translate(-54,-214) scale(1,1)"><g><path fill="none" stroke="none"/><text fill="#000000" stroke="none" font-family="Arial" font-size="13px" font-style="normal" font-weight="normal" text-decoration="none" x="565" y="604.5">+部署智能合约</text></g></g><g transform="translate(-54,-214) scale(1,1)"><g><path fill="none" stroke="none"/><text fill="#000000" stroke="none" font-family="Arial" font-size="13px" font-style="normal" font-weight="normal" text-decoration="none" x="565" y="619.5">+处理合约交易状态</text></g></g><g transform="translate(-54,-214) scale(1,1)"><g><path fill="none" stroke="none"/><text fill="#000000" stroke="none" font-family="Arial" font-size="13px" font-style="normal" font-weight="normal" text-decoration="none" x="565" y="634.5">+解码编码协议数据包</text></g></g><g transform="translate(-54,-214) scale(1,1)"><g><path fill="none" stroke="none"/><text fill="#000000" stroke="none" font-family="Arial" font-size="13px" font-style="normal" font-weight="normal" text-decoration="none" x="565" y="649.5">+自定义授权配置</text></g></g><g transform="translate(-54,-214) scale(1,1)"><g><path fill="none" stroke="none"/><text fill="#000000" stroke="none" font-family="Arial" font-size="13px" font-style="normal" font-weight="normal" text-decoration="none" x="565" y="664.5">+自定义接入区块链协议</text></g></g><g transform="translate(-54,-214) scale(1,1)"><path fill="none" stroke="#000000" d="M 607 551 L 544 432 L 459 332" stroke-miterlimit="10" stroke-dasharray="3"/></g><g transform="translate(-54,-214) scale(1,1)"><path fill="#FFFFFF" stroke="none" d="M 478.5784748052002 342.034108047163 L 459 332 L 465.7488864567396 352.9392581433545"/></g><g transform="translate(-54,-214) scale(1,1)"><path fill="none" stroke="#000000" d="M 478.5784748052002 342.034108047163 L 459 332 L 465.7488864567396 352.9392581433545 L 478.5784748052002 342.034108047163" stroke-miterlimit="10"/></g><g transform="translate(-54,-214) scale(1,1)"><g><path fill="none" stroke="none"/><text fill="#000000" stroke="none" font-family="Arial" font-size="13px" font-style="normal" font-weight="normal" text-decoration="none" x="561.5" y="428.5">+监听</text></g></g><g transform="translate(-54,-214) scale(1,1)"><path fill="none" stroke="#000000" d="M 297 551 L 353 502" stroke-miterlimit="10" stroke-dasharray="3"/></g><g transform="translate(-54,-214) scale(1,1)"><path fill="none" stroke="#000000" d="M 499 502 L 562 551" stroke-miterlimit="10" stroke-dasharray="3"/></g><g transform="translate(-54,-214) scale(1,1)"><path fill="none" stroke="#000000" d="M 559 610 L 310 610" stroke-miterlimit="10" stroke-dasharray="3"/></g><g transform="translate(-54,-214) scale(1,1)"><path fill="#C0C0C0" stroke="none" d="M 403.9 527 L 431.34 527 L 443.09999999999997 538.76 L 443.09999999999997 576 L 403.9 576" opacity="0.2"/></g><g transform="translate(-54,-214) scale(1,1)"><path fill="#ffffff" stroke="none" d="M 396.9 520 L 424.34000000000003 520 L 436.1 531.76 L 436.1 569 L 396.9 569"/></g><g transform="translate(-54,-214) scale(1,1)"><path fill="none" stroke="#000000" d="M 396.9 520 L 424.34000000000003 520 L 436.1 531.76 L 436.1 569 L 396.9 569 L 396.9 520" stroke-miterlimit="10"/></g><g transform="translate(-54,-214) scale(1,1)"><path fill="none" stroke="#000000" d="M 424.34000000000003 520 L 424.34000000000003 531.76 L 436.1 531.76 L 424.34000000000003 520" stroke-miterlimit="10"/></g><g transform="translate(-54,-214) scale(1,1)"><g><path fill="none" stroke="none"/><text fill="#000000" stroke="none" font-family="Arial" font-size="13px" font-style="normal" font-weight="bold" text-decoration="none" x="364.5" y="588.5">私有协议授权互联</text></g></g><g transform="translate(-54,-214) scale(1,1)"><rect fill="#C0C0C0" stroke="none" x="81" y="727" width="144" height="92" opacity="0.2"/></g><g transform="translate(-54,-214) scale(1,1)"><rect fill="#ffffff" stroke="none" x="74" y="720" width="144" height="92"/></g><g transform="translate(-54,-214) scale(1,1)"><path fill="none" stroke="#000000" d="M 74 720 L 218 720 L 218 812 L 74 812 L 74 720 Z Z" stroke-miterlimit="10"/></g><g transform="translate(-54,-214) scale(1,1)"><rect fill="#ffffff" stroke="none" x="64" y="727" width="20" height="10"/></g><g transform="translate(-54,-214) scale(1,1)"><path fill="none" stroke="#000000" d="M 64 727 L 84 727 L 84 737 L 64 737 L 64 727 Z Z" stroke-miterlimit="10"/></g><g transform="translate(-54,-214) scale(1,1)"><rect fill="#ffffff" stroke="none" x="64" y="747" width="20" height="10"/></g><g transform="translate(-54,-214) scale(1,1)"><path fill="none" stroke="#000000" d="M 64 747 L 84 747 L 84 757 L 64 757 L 64 747 Z Z" stroke-miterlimit="10"/></g><g transform="translate(-54,-214) scale(1,1)"><path fill="none" stroke="#000000" d="M 84 745 L 218 745" stroke-miterlimit="10"/></g><g transform="translate(-54,-214) scale(1,1)"><g><path fill="none" stroke="none"/><text fill="#000000" stroke="none" font-family="Arial" font-size="13px" font-style="normal" font-weight="bold" text-decoration="none" x="107" y="739.5">App或外接硬件</text></g></g><g transform="translate(-54,-214) scale(1,1)"><g><path fill="none" stroke="none"/><text fill="#000000" stroke="none" font-family="Arial" font-size="13px" font-style="normal" font-weight="normal" text-decoration="none" x="89" y="762.5">+本地创建钥匙对</text></g></g><g transform="translate(-54,-214) scale(1,1)"><g><path fill="none" stroke="none"/><text fill="#000000" stroke="none" font-family="Arial" font-size="13px" font-style="normal" font-weight="normal" text-decoration="none" x="89" y="777.5">+本地签名授权</text></g></g><g transform="translate(-54,-214) scale(1,1)"><g><path fill="none" stroke="none"/><text fill="#000000" stroke="none" font-family="Arial" font-size="13px" font-style="normal" font-weight="normal" text-decoration="none" x="89" y="792.5">+离线备份</text></g></g><g transform="translate(-54,-214) scale(1,1)"><g><path fill="none" stroke="none"/><text fill="#000000" stroke="none" font-family="Arial" font-size="13px" font-style="normal" font-weight="normal" text-decoration="none" x="89" y="807.5">+自定义账户体系模型</text></g></g><g transform="translate(-54,-214) scale(1,1)"><path fill="none" stroke="#000000" d="M 168 719 L 196 670" stroke-miterlimit="10" stroke-dasharray="3"/></g><g transform="translate(-54,-214) scale(1,1)"><path fill="none" stroke="#000000" d="M 194.61278620858468 680.9121784212368 L 196 670 L 187.30301636196063 676.7351670803088" stroke-miterlimit="10"/></g><g transform="translate(-54,-214) scale(1,1)"><g><path fill="none" stroke="none"/><text fill="#000000" stroke="none" font-family="Arial" font-size="13px" font-style="normal" font-weight="normal" text-decoration="none" x="100.5" y="694.5">+建立连接</text></g></g><g transform="translate(-54,-214) scale(1,1)"><rect fill="#C0C0C0" stroke="none" x="265" y="727" width="144" height="92" opacity="0.2"/></g><g transform="translate(-54,-214) scale(1,1)"><rect fill="#ffffff" stroke="none" x="258" y="720" width="144" height="92"/></g><g transform="translate(-54,-214) scale(1,1)"><path fill="none" stroke="#000000" d="M 258 720 L 402 720 L 402 812 L 258 812 L 258 720 Z Z" stroke-miterlimit="10"/></g><g transform="translate(-54,-214) scale(1,1)"><rect fill="#ffffff" stroke="none" x="248" y="727" width="20" height="10"/></g><g transform="translate(-54,-214) scale(1,1)"><path fill="none" stroke="#000000" d="M 248 727 L 268 727 L 268 737 L 248 737 L 248 727 Z Z" stroke-miterlimit="10"/></g><g transform="translate(-54,-214) scale(1,1)"><rect fill="#ffffff" stroke="none" x="248" y="747" width="20" height="10"/></g><g transform="translate(-54,-214) scale(1,1)"><path fill="none" stroke="#000000" d="M 248 747 L 268 747 L 268 757 L 248 757 L 248 747 Z Z" stroke-miterlimit="10"/></g><g transform="translate(-54,-214) scale(1,1)"><path fill="none" stroke="#000000" d="M 268 745 L 402 745" stroke-miterlimit="10"/></g><g transform="translate(-54,-214) scale(1,1)"><g><path fill="none" stroke="none"/><text fill="#000000" stroke="none" font-family="Arial" font-size="13px" font-style="normal" font-weight="bold" text-decoration="none" x="291" y="739.5">App或外接硬件</text></g></g><g transform="translate(-54,-214) scale(1,1)"><g><path fill="none" stroke="none"/><text fill="#000000" stroke="none" font-family="Arial" font-size="13px" font-style="normal" font-weight="normal" text-decoration="none" x="273" y="762.5">+本地创建钥匙对</text></g></g><g transform="translate(-54,-214) scale(1,1)"><g><path fill="none" stroke="none"/><text fill="#000000" stroke="none" font-family="Arial" font-size="13px" font-style="normal" font-weight="normal" text-decoration="none" x="273" y="777.5">+本地签名授权</text></g></g><g transform="translate(-54,-214) scale(1,1)"><g><path fill="none" stroke="none"/><text fill="#000000" stroke="none" font-family="Arial" font-size="13px" font-style="normal" font-weight="normal" text-decoration="none" x="273" y="792.5">+离线备份</text></g></g><g transform="translate(-54,-214) scale(1,1)"><g><path fill="none" stroke="none"/><text fill="#000000" stroke="none" font-family="Arial" font-size="13px" font-style="normal" font-weight="normal" text-decoration="none" x="273" y="807.5">+自定义账户体系模型</text></g></g><g transform="translate(-54,-214) scale(1,1)"><path fill="none" stroke="#000000" d="M 296 719 L 267 670" stroke-miterlimit="10" stroke-dasharray="3"/></g><g transform="translate(-54,-214) scale(1,1)"><path fill="none" stroke="#000000" d="M 275.79867546982626 676.6017656711426 L 267 670 L 268.5534498163043 680.8897563640434" stroke-miterlimit="10"/></g><g transform="translate(-54,-214) scale(1,1)"><g><path fill="none" stroke="none"/><text fill="#000000" stroke="none" font-family="Arial" font-size="13px" font-style="normal" font-weight="normal" text-decoration="none" x="301.5" y="699.5">+建立连接</text></g></g><g transform="translate(-54,-214) scale(1,1)"><rect fill="#C0C0C0" stroke="none" x="521" y="727" width="131" height="62" opacity="0.2"/></g><g transform="translate(-54,-214) scale(1,1)"><rect fill="#ffffff" stroke="none" x="514" y="720" width="131" height="62"/></g><g transform="translate(-54,-214) scale(1,1)"><path fill="none" stroke="#000000" d="M 514 720 L 645 720 L 645 782 L 514 782 L 514 720 Z Z" stroke-miterlimit="10"/></g><g transform="translate(-54,-214) scale(1,1)"><rect fill="#ffffff" stroke="none" x="504" y="727" width="20" height="10"/></g><g transform="translate(-54,-214) scale(1,1)"><path fill="none" stroke="#000000" d="M 504 727 L 524 727 L 524 737 L 504 737 L 504 727 Z Z" stroke-miterlimit="10"/></g><g transform="translate(-54,-214) scale(1,1)"><rect fill="#ffffff" stroke="none" x="504" y="747" width="20" height="10"/></g><g transform="translate(-54,-214) scale(1,1)"><path fill="none" stroke="#000000" d="M 504 747 L 524 747 L 524 757 L 504 757 L 504 747 Z Z" stroke-miterlimit="10"/></g><g transform="translate(-54,-214) scale(1,1)"><path fill="none" stroke="#000000" d="M 524 745 L 645 745" stroke-miterlimit="10"/></g><g transform="translate(-54,-214) scale(1,1)"><g><path fill="none" stroke="none"/><text fill="#000000" stroke="none" font-family="Arial" font-size="13px" font-style="normal" font-weight="bold" text-decoration="none" x="553.5" y="739.5">第三方App</text></g></g><g transform="translate(-54,-214) scale(1,1)"><g><path fill="none" stroke="none"/><text fill="#000000" stroke="none" font-family="Arial" font-size="13px" font-style="normal" font-weight="normal" text-decoration="none" x="529" y="762.5">+自主实现授权协议</text></g></g><g transform="translate(-54,-214) scale(1,1)"><g><path fill="none" stroke="none"/><text fill="#000000" stroke="none" font-family="Arial" font-size="13px" font-style="normal" font-weight="normal" text-decoration="none" x="529" y="777.5">+快捷集成SDK</text></g></g><g transform="translate(-54,-214) scale(1,1)"><path fill="none" stroke="#000000" d="M 589 719 L 611 670" stroke-miterlimit="10" stroke-dasharray="3"/></g><g transform="translate(-54,-214) scale(1,1)"><path fill="none" stroke="#000000" d="M 610.6776807110926 680.9952767257581 L 611 670 L 602.9972511113002 677.5469205789126" stroke-miterlimit="10"/></g><g transform="translate(-54,-214) scale(1,1)"><g><path fill="none" stroke="none"/><text fill="#000000" stroke="none" font-family="Arial" font-size="13px" font-style="normal" font-weight="normal" text-decoration="none" x="526.5" y="700.5">+建立连接</text></g></g></g></svg>