<svg version="1.1" xmlns="http://www.w3.org/2000/svg" xmlns:xlink="http://www.w3.org/1999/xlink" width="1064" height="1368"><defs/><g><g transform="translate(-126,-46) scale(1,1)"><rect fill="#C0C0C0" stroke="none" x="159" y="63" width="133" height="102" opacity="0.2"/></g><g transform="translate(-126,-46) scale(1,1)"><rect fill="#ffffff" stroke="none" x="152" y="56" width="133" height="102"/></g><g transform="translate(-126,-46) scale(1,1)"><path fill="none" stroke="#000000" d="M 152 56 L 285 56 L 285 158 L 152 158 L 152 56 Z Z" stroke-miterlimit="10"/></g><g transform="translate(-126,-46) scale(1,1)"><path fill="none" stroke="#000000" d="M 152 81 L 285 81" stroke-miterlimit="10"/></g><g transform="translate(-126,-46) scale(1,1)"><path fill="none" stroke="#000000" d="M 152 149 L 285 149" stroke-miterlimit="10"/></g><g transform="translate(-126,-46) scale(1,1)"><g><path fill="none" stroke="none"/><text fill="#000000" stroke="none" font-family="Arial" font-size="13px" font-style="normal" font-weight="bold" text-decoration="none" x="186.701416015625" y="75.5">Application</text></g></g><g transform="translate(-126,-46) scale(1,1)"><g><path fill="none" stroke="none"/><text fill="#000000" stroke="none" font-family="Arial" font-size="13px" font-style="normal" font-weight="normal" text-decoration="none" x="157" y="98.5">+AppKey: string</text></g></g><g transform="translate(-126,-46) scale(1,1)"><g><path fill="none" stroke="none"/><text fill="#000000" stroke="none" font-family="Arial" font-size="13px" font-style="normal" font-weight="normal" text-decoration="none" x="157" y="113.5">+PrivateKey: string</text></g></g><g transform="translate(-126,-46) scale(1,1)"><g><path fill="none" stroke="none"/><text fill="#000000" stroke="none" font-family="Arial" font-size="13px" font-style="normal" font-weight="normal" text-decoration="none" x="157" y="128.5">+Name: string</text></g></g><g transform="translate(-126,-46) scale(1,1)"><g><path fill="none" stroke="none"/><text fill="#000000" stroke="none" font-family="Arial" font-size="13px" font-style="normal" font-weight="normal" text-decoration="none" x="157" y="143.5">+Users: Array&lt;User&gt;</text></g></g><g transform="translate(-126,-46) scale(1,1)"><rect fill="#C0C0C0" stroke="none" x="159" y="207" width="151" height="102" opacity="0.2"/></g><g transform="translate(-126,-46) scale(1,1)"><rect fill="#ffffff" stroke="none" x="152" y="200" width="151" height="102"/></g><g transform="translate(-126,-46) scale(1,1)"><path fill="none" stroke="#000000" d="M 152 200 L 303 200 L 303 302 L 152 302 L 152 200 Z Z" stroke-miterlimit="10"/></g><g transform="translate(-126,-46) scale(1,1)"><path fill="none" stroke="#000000" d="M 152 225 L 303 225" stroke-miterlimit="10"/></g><g transform="translate(-126,-46) scale(1,1)"><path fill="none" stroke="#000000" d="M 152 293 L 303 293" stroke-miterlimit="10"/></g><g transform="translate(-126,-46) scale(1,1)"><g><path fill="none" stroke="none"/><text fill="#000000" stroke="none" font-family="Arial" font-size="13px" font-style="normal" font-weight="bold" text-decoration="none" x="213.7763671875" y="219.5">User</text></g></g><g transform="translate(-126,-46) scale(1,1)"><g><path fill="none" stroke="none"/><text fill="#000000" stroke="none" font-family="Arial" font-size="13px" font-style="normal" font-weight="normal" text-decoration="none" x="157" y="242.5">+Name: string</text></g></g><g transform="translate(-126,-46) scale(1,1)"><g><path fill="none" stroke="none"/><text fill="#000000" stroke="none" font-family="Arial" font-size="13px" font-style="normal" font-weight="normal" text-decoration="none" x="157" y="257.5">+UserKey: string</text></g></g><g transform="translate(-126,-46) scale(1,1)"><g><path fill="none" stroke="none"/><text fill="#000000" stroke="none" font-family="Arial" font-size="13px" font-style="normal" font-weight="normal" text-decoration="none" x="157" y="272.5">+PublicKey: string</text></g></g><g transform="translate(-126,-46) scale(1,1)"><g><path fill="none" stroke="none"/><text fill="#000000" stroke="none" font-family="Arial" font-size="13px" font-style="normal" font-weight="normal" text-decoration="none" x="157" y="287.5">+account: UserAccount</text></g></g><g transform="translate(-126,-46) scale(1,1)"><rect fill="#C0C0C0" stroke="none" x="151" y="367" width="424" height="280" opacity="0.2"/></g><g transform="translate(-126,-46) scale(1,1)"><rect fill="#ffffff" stroke="none" x="144" y="360" width="424" height="280"/></g><g transform="translate(-126,-46) scale(1,1)"><path fill="none" stroke="#000000" d="M 144 360 L 568 360 L 568 640 L 144 640 L 144 360 Z Z" stroke-miterlimit="10"/></g><g transform="translate(-126,-46) scale(1,1)"><path fill="none" stroke="#000000" d="M 144 385 L 568 385" stroke-miterlimit="10"/></g><g transform="translate(-126,-46) scale(1,1)"><path fill="none" stroke="#000000" d="M 144 513 L 568 513" stroke-miterlimit="10"/></g><g transform="translate(-126,-46) scale(1,1)"><g><path fill="none" stroke="none"/><text fill="#000000" stroke="none" font-family="Arial" font-size="13px" font-style="normal" font-weight="bold" text-decoration="none" x="338.18212890625" y="379.5">Wallet</text></g></g><g transform="translate(-126,-46) scale(1,1)"><g><path fill="none" stroke="none"/><text fill="#000000" stroke="none" font-family="Arial" font-size="13px" font-style="normal" font-weight="normal" text-decoration="none" x="149" y="402.5">+AssetsAddress: map&lt;string&gt;string</text></g></g><g transform="translate(-126,-46) scale(1,1)"><g><path fill="none" stroke="none"/><text fill="#000000" stroke="none" font-family="Arial" font-size="13px" font-style="normal" font-weight="normal" text-decoration="none" x="149" y="417.5">+Type: int</text></g></g><g transform="translate(-126,-46) scale(1,1)"><g><path fill="none" stroke="none"/><text fill="#000000" stroke="none" font-family="Arial" font-size="13px" font-style="normal" font-weight="normal" text-decoration="none" x="149" y="432.5">+PublicKey: Array&lt;string&gt;</text></g></g><g transform="translate(-126,-46) scale(1,1)"><g><path fill="none" stroke="none"/><text fill="#000000" stroke="none" font-family="Arial" font-size="13px" font-style="normal" font-weight="normal" text-decoration="none" x="149" y="447.5">+DerivedPath: string</text></g></g><g transform="translate(-126,-46) scale(1,1)"><g><path fill="none" stroke="none"/><text fill="#000000" stroke="none" font-family="Arial" font-size="13px" font-style="normal" font-weight="normal" text-decoration="none" x="149" y="462.5">+Index: uint</text></g></g><g transform="translate(-126,-46) scale(1,1)"><g><path fill="none" stroke="none"/><text fill="#000000" stroke="none" font-family="Arial" font-size="13px" font-style="normal" font-weight="normal" text-decoration="none" x="149" y="477.5">+Owners: map&lt;address&gt;User</text></g></g><g transform="translate(-126,-46) scale(1,1)"><g><path fill="none" stroke="none"/><text fill="#000000" stroke="none" font-family="Arial" font-size="13px" font-style="normal" font-weight="normal" text-decoration="none" x="149" y="492.5">+Creator: User</text></g></g><g transform="translate(-126,-46) scale(1,1)"><g><path fill="none" stroke="none"/><text fill="#000000" stroke="none" font-family="Arial" font-size="13px" font-style="normal" font-weight="normal" text-decoration="none" x="149" y="507.5">+OPChainAddress: Address</text></g></g><g transform="translate(-126,-46) scale(1,1)"><g><path fill="none" stroke="none"/><text fill="#000000" stroke="none" font-family="Arial" font-size="13px" font-style="normal" font-weight="normal" text-decoration="none" x="149" y="530.5">+Deposit(assets: string): string</text></g></g><g transform="translate(-126,-46) scale(1,1)"><g><path fill="none" stroke="none"/><text fill="#000000" stroke="none" font-family="Arial" font-size="13px" font-style="normal" font-weight="normal" text-decoration="none" x="149" y="545.5">+Withdraw(assets: string, amount: uint, destination: string): Transaction</text></g></g><g transform="translate(-126,-46) scale(1,1)"><g><path fill="none" stroke="none"/><text fill="#000000" stroke="none" font-family="Arial" font-size="13px" font-style="normal" font-weight="normal" text-decoration="none" x="149" y="560.5">+GetBalance(assets: string): uint</text></g></g><g transform="translate(-126,-46) scale(1,1)"><g><path fill="none" stroke="none"/><text fill="#000000" stroke="none" font-family="Arial" font-size="13px" font-style="normal" font-weight="normal" text-decoration="none" x="149" y="575.5">+Call(assets: string, method: string): bytes</text></g></g><g transform="translate(-126,-46) scale(1,1)"><g><path fill="none" stroke="none"/><text fill="#000000" stroke="none" font-family="Arial" font-size="13px" font-style="normal" font-weight="normal" text-decoration="none" x="149" y="590.5">+Boardcast(tx: Transaction)</text></g></g><g transform="translate(-126,-46) scale(1,1)"><g><path fill="none" stroke="none"/><text fill="#000000" stroke="none" font-family="Arial" font-size="13px" font-style="normal" font-weight="normal" text-decoration="none" x="149" y="605.5">+DeployMultiSigWallet(assets: string, from: Wallet): string</text></g></g><g transform="translate(-126,-46) scale(1,1)"><g><path fill="none" stroke="none"/><text fill="#000000" stroke="none" font-family="Arial" font-size="13px" font-style="normal" font-weight="normal" text-decoration="none" x="149" y="620.5">+AddOwner(user: User)</text></g></g><g transform="translate(-126,-46) scale(1,1)"><g><path fill="none" stroke="none"/><text fill="#000000" stroke="none" font-family="Arial" font-size="13px" font-style="normal" font-weight="normal" text-decoration="none" x="149" y="635.5">+ChangeRequired(required: uint)</text></g></g><g transform="translate(-126,-46) scale(1,1)"><rect fill="#C0C0C0" stroke="none" x="431" y="959" width="276.4521484375" height="190" opacity="0.2"/></g><g transform="translate(-126,-46) scale(1,1)"><rect fill="#ffffff" stroke="none" x="424" y="952" width="276.4521484375" height="190"/></g><g transform="translate(-126,-46) scale(1,1)"><path fill="none" stroke="#000000" d="M 424 952 L 700.4521484375 952 L 700.4521484375 1142 L 424 1142 L 424 952 Z Z" stroke-miterlimit="10"/></g><g transform="translate(-126,-46) scale(1,1)"><path fill="none" stroke="#000000" d="M 424 990 L 700.4521484375 990" stroke-miterlimit="10"/></g><g transform="translate(-126,-46) scale(1,1)"><path fill="none" stroke="#000000" d="M 424 1000 L 700.4521484375 1000" stroke-miterlimit="10"/></g><g transform="translate(-126,-46) scale(1,1)"><g><path fill="none" stroke="none"/><text fill="#000000" stroke="none" font-family="Arial" font-size="13px" font-style="normal" font-weight="normal" text-decoration="none" x="530.065673828125" y="969.5">«interface»</text></g></g><g transform="translate(-126,-46) scale(1,1)"><g><path fill="none" stroke="none"/><text fill="#000000" stroke="none" font-family="Arial" font-size="13px" font-style="normal" font-weight="bold" text-decoration="none" x="517.427490234375" y="984.5">AssetsInferface</text></g></g><g transform="translate(-126,-46) scale(1,1)"><g><path fill="none" stroke="none"/><text fill="#000000" stroke="none" font-family="Arial" font-size="13px" font-style="normal" font-weight="normal" text-decoration="none" x="429" y="1017.5">+Deposit(): string</text></g></g><g transform="translate(-126,-46) scale(1,1)"><g><path fill="none" stroke="none"/><text fill="#000000" stroke="none" font-family="Arial" font-size="13px" font-style="normal" font-weight="normal" text-decoration="none" x="429" y="1032.5">+Transfer(amount: uint, to: string): Transaction</text></g></g><g transform="translate(-126,-46) scale(1,1)"><g><path fill="none" stroke="none"/><text fill="#000000" stroke="none" font-family="Arial" font-size="13px" font-style="normal" font-weight="normal" text-decoration="none" x="429" y="1047.5">+GetBalance(): uint</text></g></g><g transform="translate(-126,-46) scale(1,1)"><g><path fill="none" stroke="none"/><text fill="#000000" stroke="none" font-family="Arial" font-size="13px" font-style="normal" font-weight="normal" text-decoration="none" x="429" y="1062.5">+ContractABI(): string</text></g></g><g transform="translate(-126,-46) scale(1,1)"><g><path fill="none" stroke="none"/><text fill="#000000" stroke="none" font-family="Arial" font-size="13px" font-style="normal" font-weight="normal" text-decoration="none" x="429" y="1077.5">+ContractAddress(): string</text></g></g><g transform="translate(-126,-46) scale(1,1)"><g><path fill="none" stroke="none"/><text fill="#000000" stroke="none" font-family="Arial" font-size="13px" font-style="normal" font-weight="normal" text-decoration="none" x="429" y="1092.5">+Name(): string</text></g></g><g transform="translate(-126,-46) scale(1,1)"><g><path fill="none" stroke="none"/><text fill="#000000" stroke="none" font-family="Arial" font-size="13px" font-style="normal" font-weight="normal" text-decoration="none" x="429" y="1107.5">+Init(w: Wallet, app: interface{})</text></g></g><g transform="translate(-126,-46) scale(1,1)"><g><path fill="none" stroke="none"/><text fill="#000000" stroke="none" font-family="Arial" font-size="13px" font-style="normal" font-weight="normal" text-decoration="none" x="429" y="1122.5">+DeployMultiSigWallet(from: Wallet): string</text></g></g><g transform="translate(-126,-46) scale(1,1)"><g><path fill="none" stroke="none"/><text fill="#000000" stroke="none" font-family="Arial" font-size="13px" font-style="normal" font-weight="normal" text-decoration="none" x="429" y="1137.5">+Boardcast(tx: Transaction)</text></g></g><g transform="translate(-126,-46) scale(1,1)"><rect fill="#C0C0C0" stroke="none" x="319" y="1359" width="150.3369140625" height="44" opacity="0.2"/></g><g transform="translate(-126,-46) scale(1,1)"><rect fill="#ffffff" stroke="none" x="312" y="1352" width="150.3369140625" height="44"/></g><g transform="translate(-126,-46) scale(1,1)"><path fill="none" stroke="#000000" d="M 312 1352 L 462.3369140625 1352 L 462.3369140625 1396 L 312 1396 L 312 1352 Z Z" stroke-miterlimit="10"/></g><g transform="translate(-126,-46) scale(1,1)"><path fill="none" stroke="#000000" d="M 312 1377 L 462.3369140625 1377" stroke-miterlimit="10"/></g><g transform="translate(-126,-46) scale(1,1)"><path fill="none" stroke="#000000" d="M 312 1387 L 462.3369140625 1387" stroke-miterlimit="10"/></g><g transform="translate(-126,-46) scale(1,1)"><g><path fill="none" stroke="none"/><text fill="#000000" stroke="none" font-family="Arial" font-size="13px" font-style="normal" font-weight="bold" text-decoration="none" x="320.692626953125" y="1371.5">ERC20TokenController</text></g></g><g transform="translate(-126,-46) scale(1,1)"><rect fill="#C0C0C0" stroke="none" x="631" y="1367" width="91" height="44" opacity="0.2"/></g><g transform="translate(-126,-46) scale(1,1)"><rect fill="#ffffff" stroke="none" x="624" y="1360" width="91" height="44"/></g><g transform="translate(-126,-46) scale(1,1)"><path fill="none" stroke="#000000" d="M 624 1360 L 715 1360 L 715 1404 L 624 1404 L 624 1360 Z Z" stroke-miterlimit="10"/></g><g transform="translate(-126,-46) scale(1,1)"><path fill="none" stroke="#000000" d="M 624 1385 L 715 1385" stroke-miterlimit="10"/></g><g transform="translate(-126,-46) scale(1,1)"><path fill="none" stroke="#000000" d="M 624 1395 L 715 1395" stroke-miterlimit="10"/></g><g transform="translate(-126,-46) scale(1,1)"><g><path fill="none" stroke="none"/><text fill="#000000" stroke="none" font-family="Arial" font-size="13px" font-style="normal" font-weight="bold" text-decoration="none" x="632.6455078125" y="1379.5">BitcoinToken</text></g></g><g transform="translate(-126,-46) scale(1,1)"><rect fill="#C0C0C0" stroke="none" x="159" y="695" width="191" height="220" opacity="0.2"/></g><g transform="translate(-126,-46) scale(1,1)"><rect fill="#ffffff" stroke="none" x="152" y="688" width="191" height="220"/></g><g transform="translate(-126,-46) scale(1,1)"><path fill="none" stroke="#000000" d="M 152 688 L 343 688 L 343 908 L 152 908 L 152 688 Z Z" stroke-miterlimit="10"/></g><g transform="translate(-126,-46) scale(1,1)"><path fill="none" stroke="#000000" d="M 152 713 L 343 713" stroke-miterlimit="10"/></g><g transform="translate(-126,-46) scale(1,1)"><path fill="none" stroke="#000000" d="M 152 886 L 343 886" stroke-miterlimit="10"/></g><g transform="translate(-126,-46) scale(1,1)"><g><path fill="none" stroke="none"/><text fill="#000000" stroke="none" font-family="Arial" font-size="13px" font-style="normal" font-weight="bold" text-decoration="none" x="213.78125" y="707.5">Transaction</text></g></g><g transform="translate(-126,-46) scale(1,1)"><g><path fill="none" stroke="none"/><text fill="#000000" stroke="none" font-family="Arial" font-size="13px" font-style="normal" font-weight="normal" text-decoration="none" x="157" y="730.5">+From: Address</text></g></g><g transform="translate(-126,-46) scale(1,1)"><g><path fill="none" stroke="none"/><text fill="#000000" stroke="none" font-family="Arial" font-size="13px" font-style="normal" font-weight="normal" text-decoration="none" x="157" y="745.5">+To: Address</text></g></g><g transform="translate(-126,-46) scale(1,1)"><g><path fill="none" stroke="none"/><text fill="#000000" stroke="none" font-family="Arial" font-size="13px" font-style="normal" font-weight="normal" text-decoration="none" x="157" y="760.5">+ByteCode: bytes</text></g></g><g transform="translate(-126,-46) scale(1,1)"><g><path fill="none" stroke="none"/><text fill="#000000" stroke="none" font-family="Arial" font-size="13px" font-style="normal" font-weight="normal" text-decoration="none" x="157" y="775.5">+TxHash: string</text></g></g><g transform="translate(-126,-46) scale(1,1)"><g><path fill="none" stroke="none"/><text fill="#000000" stroke="none" font-family="Arial" font-size="13px" font-style="normal" font-weight="normal" text-decoration="none" x="157" y="790.5">+Asserts: AssetsController</text></g></g><g transform="translate(-126,-46) scale(1,1)"><g><path fill="none" stroke="none"/><text fill="#000000" stroke="none" font-family="Arial" font-size="13px" font-style="normal" font-weight="normal" text-decoration="none" x="157" y="805.5">+Amounts: uint</text></g></g><g transform="translate(-126,-46) scale(1,1)"><g><path fill="none" stroke="none"/><text fill="#000000" stroke="none" font-family="Arial" font-size="13px" font-style="normal" font-weight="normal" text-decoration="none" x="157" y="820.5">+Fees: uint</text></g></g><g transform="translate(-126,-46) scale(1,1)"><g><path fill="none" stroke="none"/><text fill="#000000" stroke="none" font-family="Arial" font-size="13px" font-style="normal" font-weight="normal" text-decoration="none" x="157" y="835.5">+TotalCost: uint</text></g></g><g transform="translate(-126,-46) scale(1,1)"><g><path fill="none" stroke="none"/><text fill="#000000" stroke="none" font-family="Arial" font-size="13px" font-style="normal" font-weight="normal" text-decoration="none" x="157" y="850.5">+status: uint</text></g></g><g transform="translate(-126,-46) scale(1,1)"><g><path fill="none" stroke="none"/><text fill="#000000" stroke="none" font-family="Arial" font-size="13px" font-style="normal" font-weight="normal" text-decoration="none" x="157" y="865.5">+TxId: uint</text></g></g><g transform="translate(-126,-46) scale(1,1)"><g><path fill="none" stroke="none"/><text fill="#000000" stroke="none" font-family="Arial" font-size="13px" font-style="normal" font-weight="normal" text-decoration="none" x="157" y="880.5">+Sigs: Map&lt;bytes32&gt;bytes65</text></g></g><g transform="translate(-126,-46) scale(1,1)"><g><path fill="none" stroke="none"/><text fill="#000000" stroke="none" font-family="Arial" font-size="13px" font-style="normal" font-weight="normal" text-decoration="none" x="157" y="903.5">+Raw(): bytes</text></g></g><g transform="translate(-126,-46) scale(1,1)"><rect fill="#C0C0C0" stroke="none" x="143" y="967" width="175" height="57" opacity="0.2"/></g><g transform="translate(-126,-46) scale(1,1)"><rect fill="#ffffff" stroke="none" x="136" y="960" width="175" height="57"/></g><g transform="translate(-126,-46) scale(1,1)"><path fill="none" stroke="#000000" d="M 136 960 L 311 960 L 311 1017 L 136 1017 L 136 960 Z Z" stroke-miterlimit="10"/></g><g transform="translate(-126,-46) scale(1,1)"><path fill="none" stroke="#000000" d="M 136 985 L 311 985" stroke-miterlimit="10"/></g><g transform="translate(-126,-46) scale(1,1)"><path fill="none" stroke="#000000" d="M 136 1008 L 311 1008" stroke-miterlimit="10"/></g><g transform="translate(-126,-46) scale(1,1)"><g><path fill="none" stroke="none"/><text fill="#000000" stroke="none" font-family="Arial" font-size="13px" font-style="normal" font-weight="bold" text-decoration="none" x="179.7900390625" y="979.5">AssetsRegister</text></g></g><g transform="translate(-126,-46) scale(1,1)"><g><path fill="none" stroke="none"/><text fill="#000000" stroke="none" font-family="Arial" font-size="13px" font-style="normal" font-weight="normal" text-decoration="none" x="141" y="1002.5">+routers: Array&lt;AssetsInfo&gt;</text></g></g><g transform="translate(-126,-46) scale(1,1)"><rect fill="#C0C0C0" stroke="none" x="143" y="1127" width="180" height="87" opacity="0.2"/></g><g transform="translate(-126,-46) scale(1,1)"><rect fill="#ffffff" stroke="none" x="136" y="1120" width="180" height="87"/></g><g transform="translate(-126,-46) scale(1,1)"><path fill="none" stroke="#000000" d="M 136 1120 L 316 1120 L 316 1207 L 136 1207 L 136 1120 Z Z" stroke-miterlimit="10"/></g><g transform="translate(-126,-46) scale(1,1)"><path fill="none" stroke="#000000" d="M 136 1145 L 316 1145" stroke-miterlimit="10"/></g><g transform="translate(-126,-46) scale(1,1)"><path fill="none" stroke="#000000" d="M 136 1198 L 316 1198" stroke-miterlimit="10"/></g><g transform="translate(-126,-46) scale(1,1)"><g><path fill="none" stroke="none"/><text fill="#000000" stroke="none" font-family="Arial" font-size="13px" font-style="normal" font-weight="bold" text-decoration="none" x="195.65185546875" y="1139.5">AssetsInfo</text></g></g><g transform="translate(-126,-46) scale(1,1)"><g><path fill="none" stroke="none"/><text fill="#000000" stroke="none" font-family="Arial" font-size="13px" font-style="normal" font-weight="normal" text-decoration="none" x="141" y="1162.5">+pattern: string</text></g></g><g transform="translate(-126,-46) scale(1,1)"><g><path fill="none" stroke="none"/><text fill="#000000" stroke="none" font-family="Arial" font-size="13px" font-style="normal" font-weight="normal" text-decoration="none" x="141" y="1177.5">+controllerType: reflect.Type</text></g></g><g transform="translate(-126,-46) scale(1,1)"><g><path fill="none" stroke="none"/><text fill="#000000" stroke="none" font-family="Arial" font-size="13px" font-style="normal" font-weight="normal" text-decoration="none" x="141" y="1192.5">+methods: map&lt;string&gt;string</text></g></g><g transform="translate(-126,-46) scale(1,1)"><rect fill="#C0C0C0" stroke="none" x="463" y="1199" width="172" height="72" opacity="0.2"/></g><g transform="translate(-126,-46) scale(1,1)"><rect fill="#ffffff" stroke="none" x="456" y="1192" width="172" height="72"/></g><g transform="translate(-126,-46) scale(1,1)"><path fill="none" stroke="#000000" d="M 456 1192 L 628 1192 L 628 1264 L 456 1264 L 456 1192 Z Z" stroke-miterlimit="10"/></g><g transform="translate(-126,-46) scale(1,1)"><path fill="none" stroke="#000000" d="M 456 1217 L 628 1217" stroke-miterlimit="10"/></g><g transform="translate(-126,-46) scale(1,1)"><path fill="none" stroke="#000000" d="M 456 1255 L 628 1255" stroke-miterlimit="10"/></g><g transform="translate(-126,-46) scale(1,1)"><g><path fill="none" stroke="none"/><text fill="#000000" stroke="none" font-family="Arial" font-size="13px" font-style="normal" font-weight="bold" text-decoration="none" x="494.31640625" y="1211.5">AssetsController</text></g></g><g transform="translate(-126,-46) scale(1,1)"><g><path fill="none" stroke="none"/><text fill="#000000" stroke="none" font-family="Arial" font-size="13px" font-style="normal" font-weight="normal" text-decoration="none" x="461" y="1234.5">+wallet: *Wallet</text></g></g><g transform="translate(-126,-46) scale(1,1)"><g><path fill="none" stroke="none"/><text fill="#000000" stroke="none" font-family="Arial" font-size="13px" font-style="normal" font-weight="normal" text-decoration="none" x="461" y="1249.5">+AppController: interface{}</text></g></g><g transform="translate(-126,-46) scale(1,1)"><path fill="none" stroke="#000000" d="M 546 1191 L 551 1143" stroke-miterlimit="10" stroke-dasharray="3"/></g><g transform="translate(-126,-46) scale(1,1)"><path fill="#FFFFFF" stroke="none" d="M 557.2678978101712 1164.0882302965717 L 551 1143 L 540.5204423994269 1162.343703691286"/></g><g transform="translate(-126,-46) scale(1,1)"><path fill="none" stroke="#000000" d="M 557.2678978101712 1164.0882302965717 L 551 1143 L 540.5204423994269 1162.343703691286 L 557.2678978101712 1164.0882302965717" stroke-miterlimit="10"/></g><g transform="translate(-126,-46) scale(1,1)"><path fill="none" stroke="#000000" d="M 411 1351 L 503 1265" stroke-miterlimit="10"/></g><g transform="translate(-126,-46) scale(1,1)"><path fill="#FFFFFF" stroke="none" d="M 493.90100810183094 1285.0301858812406 L 503 1265 L 482.40256086179085 1272.7295213918956"/></g><g transform="translate(-126,-46) scale(1,1)"><path fill="none" stroke="#000000" d="M 493.90100810183094 1285.0301858812406 L 503 1265 L 482.40256086179085 1272.7295213918956 L 493.90100810183094 1285.0301858812406" stroke-miterlimit="10"/></g><g transform="translate(-126,-46) scale(1,1)"><g><path fill="none" stroke="none"/><text fill="#000000" stroke="none" font-family="Arial" font-size="13px" font-style="normal" font-weight="normal" text-decoration="none" x="428.7041015625" y="1303.5">+组成</text></g></g><g transform="translate(-126,-46) scale(1,1)"><path fill="none" stroke="#000000" d="M 650 1359 L 573 1265" stroke-miterlimit="10"/></g><g transform="translate(-126,-46) scale(1,1)"><path fill="#FFFFFF" stroke="none" d="M 592.3927721061486 1275.388473903273 L 573 1265 L 579.3670003190792 1286.058521005447"/></g><g transform="translate(-126,-46) scale(1,1)"><path fill="none" stroke="#000000" d="M 592.3927721061486 1275.388473903273 L 573 1265 L 579.3670003190792 1286.058521005447 L 592.3927721061486 1275.388473903273" stroke-miterlimit="10"/></g><g transform="translate(-126,-46) scale(1,1)"><g><path fill="none" stroke="none"/><text fill="#000000" stroke="none" font-family="Arial" font-size="13px" font-style="normal" font-weight="normal" text-decoration="none" x="581.7041015625" y="1327.5">+组成</text></g></g><g transform="translate(-126,-46) scale(1,1)"><path fill="none" stroke="#000000" d="M 225 1119 L 224 1018" stroke-miterlimit="10"/></g><g transform="translate(-126,-46) scale(1,1)"><path fill="#FFFFFF" stroke="none" d="M 228.3099270541145 1028.1205004218275 L 224 1018 L 219.89130416910814 1028.2038531236592 L 224.2178111064715 1039.9989217536202"/></g><g transform="translate(-126,-46) scale(1,1)"><path fill="none" stroke="#000000" d="M 228.3099270541145 1028.1205004218275 L 224 1018 L 219.89130416910814 1028.2038531236592 L 224.2178111064715 1039.9989217536202 L 228.3099270541145 1028.1205004218275" stroke-miterlimit="10"/></g><g transform="translate(-126,-46) scale(1,1)"><path fill="none" stroke="#000000" d="M 423 1095 L 317 1132" stroke-miterlimit="10"/></g><g transform="translate(-126,-46) scale(1,1)"><path fill="none" stroke="#000000" d="M 325.207669324996 1124.676465044016 L 317 1132 L 327.9822198670745 1132.6251774078085" stroke-miterlimit="10"/></g><g transform="translate(-126,-46) scale(1,1)"><rect fill="#C0C0C0" stroke="none" x="759" y="975" width="131.078125" height="48" opacity="0.2"/></g><g transform="translate(-126,-46) scale(1,1)"><rect fill="#ffffff" stroke="none" x="752" y="968" width="131.078125" height="48"/></g><g transform="translate(-126,-46) scale(1,1)"><path fill="none" stroke="#000000" d="M 752 968 L 883.078125 968 L 883.078125 1016 L 752 1016 L 752 968 Z Z" stroke-miterlimit="10"/></g><g transform="translate(-126,-46) scale(1,1)"><g><path fill="none" stroke="none"/><text fill="#000000" stroke="none" font-family="Arial" font-size="13px" font-style="normal" font-weight="normal" text-decoration="none" x="785.378662109375" y="985.5">«interface»</text></g></g><g transform="translate(-126,-46) scale(1,1)"><g><path fill="none" stroke="none"/><text fill="#000000" stroke="none" font-family="Arial" font-size="13px" font-style="normal" font-weight="bold" text-decoration="none" x="762.260498046875" y="1000.5">BlockchainProtocol</text></g></g><g transform="translate(-126,-46) scale(1,1)"><rect fill="#C0C0C0" stroke="none" x="1031" y="1135" width="88" height="57" opacity="0.2"/></g><g transform="translate(-126,-46) scale(1,1)"><rect fill="#ffffff" stroke="none" x="1024" y="1128" width="88" height="57"/></g><g transform="translate(-126,-46) scale(1,1)"><path fill="none" stroke="#000000" d="M 1024 1128 L 1112 1128 L 1112 1185 L 1024 1185 L 1024 1128 Z Z" stroke-miterlimit="10"/></g><g transform="translate(-126,-46) scale(1,1)"><path fill="none" stroke="#000000" d="M 1024 1153 L 1112 1153" stroke-miterlimit="10"/></g><g transform="translate(-126,-46) scale(1,1)"><path fill="none" stroke="#000000" d="M 1024 1163 L 1112 1163" stroke-miterlimit="10"/></g><g transform="translate(-126,-46) scale(1,1)"><g><path fill="none" stroke="none"/><text fill="#000000" stroke="none" font-family="Arial" font-size="13px" font-style="normal" font-weight="bold" text-decoration="none" x="1053.911376953125" y="1147.5">main</text></g></g><g transform="translate(-126,-46) scale(1,1)"><g><path fill="none" stroke="none"/><text fill="#000000" stroke="none" font-family="Arial" font-size="13px" font-style="normal" font-weight="normal" text-decoration="none" x="1029" y="1180.5">+openw()</text></g></g><g transform="translate(-126,-46) scale(1,1)"><rect fill="#C0C0C0" stroke="none" x="1119" y="1031" width="27.200000000000045" height="15" opacity="0.2"/></g><g transform="translate(-126,-46) scale(1,1)"><rect fill="#C0C0C0" stroke="none" x="1119" y="1045" width="68" height="25" opacity="0.2"/></g><g transform="translate(-126,-46) scale(1,1)"><rect fill="#ffffff" stroke="none" x="1112" y="1039" width="68" height="24"/></g><g transform="translate(-126,-46) scale(1,1)"><path fill="none" stroke="#000000" d="M 1112 1039 L 1180 1039 L 1180 1063 L 1112 1063 L 1112 1039 Z Z" stroke-miterlimit="10"/></g><g transform="translate(-126,-46) scale(1,1)"><rect fill="#ffffff" stroke="none" x="1112" y="1024" width="27.200000000000045" height="15"/></g><g transform="translate(-126,-46) scale(1,1)"><path fill="none" stroke="#000000" d="M 1112 1024 L 1139.2 1024 L 1139.2 1039 L 1112 1039 L 1112 1024 Z Z" stroke-miterlimit="10"/></g><g transform="translate(-126,-46) scale(1,1)"><rect fill="#ffffff" stroke="none" x="1112" y="1038" width="68" height="25"/></g><g transform="translate(-126,-46) scale(1,1)"><path fill="none" stroke="#000000" d="M 1112 1038 L 1180 1038 L 1180 1063 L 1112 1063 L 1112 1038 Z Z" stroke-miterlimit="10"/></g><g transform="translate(-126,-46) scale(1,1)"><g><path fill="none" stroke="none"/><text fill="#000000" stroke="none" font-family="Arial" font-size="13px" font-style="normal" font-weight="bold" text-decoration="none" x="1126.845947265625" y="1058.5">openw</text></g></g><g transform="translate(-126,-46) scale(1,1)"><rect fill="#C0C0C0" stroke="none" x="623" y="191" width="448" height="102" opacity="0.2"/></g><g transform="translate(-126,-46) scale(1,1)"><rect fill="#ffffff" stroke="none" x="616" y="184" width="448" height="102"/></g><g transform="translate(-126,-46) scale(1,1)"><path fill="none" stroke="#000000" d="M 616 184 L 1064 184 L 1064 286 L 616 286 L 616 184 Z Z" stroke-miterlimit="10"/></g><g transform="translate(-126,-46) scale(1,1)"><path fill="none" stroke="#000000" d="M 616 209 L 1064 209" stroke-miterlimit="10"/></g><g transform="translate(-126,-46) scale(1,1)"><path fill="none" stroke="#000000" d="M 616 219 L 1064 219" stroke-miterlimit="10"/></g><g transform="translate(-126,-46) scale(1,1)"><g><path fill="none" stroke="none"/><text fill="#000000" stroke="none" font-family="Arial" font-size="13px" font-style="normal" font-weight="bold" text-decoration="none" x="804.9609375" y="203.5">HDKeystore</text></g></g><g transform="translate(-126,-46) scale(1,1)"><g><path fill="none" stroke="none"/><text fill="#000000" stroke="none" font-family="Arial" font-size="13px" font-style="normal" font-weight="normal" text-decoration="none" x="621" y="236.5">+GetRootKey(userKey: string, filename: string, auth: string): extendedKey</text></g></g><g transform="translate(-126,-46) scale(1,1)"><g><path fill="none" stroke="none"/><text fill="#000000" stroke="none" font-family="Arial" font-size="13px" font-style="normal" font-weight="normal" text-decoration="none" x="621" y="251.5">+StoreKey(filename: string, k: extendedKey, auth: string)</text></g></g><g transform="translate(-126,-46) scale(1,1)"><g><path fill="none" stroke="none"/><text fill="#000000" stroke="none" font-family="Arial" font-size="13px" font-style="normal" font-weight="normal" text-decoration="none" x="621" y="266.5">+JoinPath(filename: string)</text></g></g><g transform="translate(-126,-46) scale(1,1)"><rect fill="#C0C0C0" stroke="none" x="663" y="407" width="73.32080078125" height="48" opacity="0.2"/></g><g transform="translate(-126,-46) scale(1,1)"><rect fill="#ffffff" stroke="none" x="656" y="400" width="73.32080078125" height="48"/></g><g transform="translate(-126,-46) scale(1,1)"><path fill="none" stroke="#000000" d="M 656 400 L 729.32080078125 400 L 729.32080078125 448 L 656 448 L 656 400 Z Z" stroke-miterlimit="10"/></g><g transform="translate(-126,-46) scale(1,1)"><g><path fill="none" stroke="none"/><text fill="#000000" stroke="none" font-family="Arial" font-size="13px" font-style="normal" font-weight="normal" text-decoration="none" x="660.5" y="417.5">«interface»</text></g></g><g transform="translate(-126,-46) scale(1,1)"><g><path fill="none" stroke="none"/><text fill="#000000" stroke="none" font-family="Arial" font-size="13px" font-style="normal" font-weight="bold" text-decoration="none" x="674.842529296875" y="432.5">Wallet</text></g></g><g transform="translate(-126,-46) scale(1,1)"><rect fill="#C0C0C0" stroke="none" x="367" y="191" width="202" height="145" opacity="0.2"/></g><g transform="translate(-126,-46) scale(1,1)"><rect fill="#ffffff" stroke="none" x="360" y="184" width="202" height="145"/></g><g transform="translate(-126,-46) scale(1,1)"><path fill="none" stroke="#000000" d="M 360 184 L 562 184 L 562 329 L 360 329 L 360 184 Z Z" stroke-miterlimit="10"/></g><g transform="translate(-126,-46) scale(1,1)"><path fill="none" stroke="#000000" d="M 360 209 L 562 209" stroke-miterlimit="10"/></g><g transform="translate(-126,-46) scale(1,1)"><path fill="none" stroke="#000000" d="M 360 277 L 562 277" stroke-miterlimit="10"/></g><g transform="translate(-126,-46) scale(1,1)"><g><path fill="none" stroke="none"/><text fill="#000000" stroke="none" font-family="Arial" font-size="13px" font-style="normal" font-weight="bold" text-decoration="none" x="423.7900390625" y="203.5">UserAccount</text></g></g><g transform="translate(-126,-46) scale(1,1)"><g><path fill="none" stroke="none"/><text fill="#000000" stroke="none" font-family="Arial" font-size="13px" font-style="normal" font-weight="normal" text-decoration="none" x="365" y="226.5">+UserKey: string</text></g></g><g transform="translate(-126,-46) scale(1,1)"><g><path fill="none" stroke="none"/><text fill="#000000" stroke="none" font-family="Arial" font-size="13px" font-style="normal" font-weight="normal" text-decoration="none" x="365" y="241.5">+keystore: HDKeystore</text></g></g><g transform="translate(-126,-46) scale(1,1)"><g><path fill="none" stroke="none"/><text fill="#000000" stroke="none" font-family="Arial" font-size="13px" font-style="normal" font-weight="normal" text-decoration="none" x="365" y="256.5">+Wallets: Array&lt;Wallet&gt;</text></g></g><g transform="translate(-126,-46) scale(1,1)"><g><path fill="none" stroke="none"/><text fill="#000000" stroke="none" font-family="Arial" font-size="13px" font-style="normal" font-weight="normal" text-decoration="none" x="365" y="271.5">+unlocked: map&lt;string&gt;unlocked</text></g></g><g transform="translate(-126,-46) scale(1,1)"><g><path fill="none" stroke="none"/><text fill="#000000" stroke="none" font-family="Arial" font-size="13px" font-style="normal" font-weight="normal" text-decoration="none" x="365" y="294.5">+CreateWallet(): Wallet</text></g></g><g transform="translate(-126,-46) scale(1,1)"><g><path fill="none" stroke="none"/><text fill="#000000" stroke="none" font-family="Arial" font-size="13px" font-style="normal" font-weight="normal" text-decoration="none" x="365" y="309.5">+LastWallet(): uint</text></g></g><g transform="translate(-126,-46) scale(1,1)"><g><path fill="none" stroke="none"/><text fill="#000000" stroke="none" font-family="Arial" font-size="13px" font-style="normal" font-weight="normal" text-decoration="none" x="365" y="324.5">+LoadWallets()</text></g></g><g transform="translate(-126,-46) scale(1,1)"><path fill="none" stroke="#000000" d="M 304 253 L 359 254" stroke-miterlimit="10" stroke-dasharray="3"/></g><g transform="translate(-126,-46) scale(1,1)"><path fill="none" stroke="#000000" d="M 348.7624804680674 258.02407676781877 L 359 254 L 348.9155285459008 249.60643248698065" stroke-miterlimit="10"/></g><g transform="translate(-126,-46) scale(1,1)"><path fill="none" stroke="#000000" d="M 429 330 L 417 359" stroke-miterlimit="10" stroke-dasharray="3"/></g><g transform="translate(-126,-46) scale(1,1)"><path fill="none" stroke="#000000" d="M 416.99605168776947 348.00000070859863 L 417 359 L 424.77538221364466 351.21903402965046" stroke-miterlimit="10"/></g><g transform="translate(-126,-46) scale(1,1)"><path fill="none" stroke="#000000" d="M 221 159 L 224 199" stroke-miterlimit="10" stroke-dasharray="3"/></g><g transform="translate(-126,-46) scale(1,1)"><path fill="none" stroke="#000000" d="M 219.0422058721394 189.1806172604511 L 224 199 L 227.43766227466406 188.55095803026174" stroke-miterlimit="10"/></g></g></svg>