<svg version="1.1" xmlns="http://www.w3.org/2000/svg" xmlns:xlink="http://www.w3.org/1999/xlink" width="820" height="332"><defs/><g><g transform="translate(-134,-246) scale(1,1)"><path fill="#ffd6ad" stroke="none" d="M 552 256 L 933 256 L 943 266 L 943 567 L 552 567 L 552 256"/></g><g transform="translate(-134,-246) scale(1,1)"><path fill="none" stroke="#000000" d="M 552 256 L 933 256 L 943 266 L 943 567 L 552 567 L 552 256 L 552 256" stroke-miterlimit="10"/></g><g transform="translate(-134,-246) scale(1,1)"><path fill="none" stroke="#000000" d="M 933 256 L 933 266 L 943 266 L 933 256" stroke-miterlimit="10"/></g><g transform="translate(-134,-246) scale(1,1)"><g><path fill="none" stroke="none"/><text fill="#000000" stroke="none" font-family="Arial" font-size="13px" font-style="normal" font-weight="normal" text-decoration="none" x="557" y="274">Contract</text></g></g><g transform="translate(-134,-246) scale(1,1)"><rect fill="#C0C0C0" stroke="none" x="303" y="388" width="87.00634765625" height="32" opacity="0.2"/></g><g transform="translate(-134,-246) scale(1,1)"><rect fill="#ffffff" stroke="none" x="296" y="381" width="87.00634765625" height="32"/></g><g transform="translate(-134,-246) scale(1,1)"><path fill="none" stroke="#000000" d="M 296 381 L 383.00634765625 381 L 383.00634765625 413 L 296 413 L 296 381 Z Z" stroke-miterlimit="10"/></g><g transform="translate(-134,-246) scale(1,1)"><g><path fill="none" stroke="none"/><text fill="#000000" stroke="none" font-family="Arial" font-size="13px" font-style="normal" font-weight="bold" text-decoration="none" x="304.45458984375" y="398.5">Applications</text></g></g><g transform="translate(-134,-246) scale(1,1)"><rect fill="#C0C0C0" stroke="none" x="455" y="388" width="52" height="32" opacity="0.2"/></g><g transform="translate(-134,-246) scale(1,1)"><rect fill="#ffffff" stroke="none" x="448" y="381" width="52" height="32"/></g><g transform="translate(-134,-246) scale(1,1)"><path fill="none" stroke="#000000" d="M 448 381 L 500 381 L 500 413 L 448 413 L 448 381 Z Z" stroke-miterlimit="10"/></g><g transform="translate(-134,-246) scale(1,1)"><g><path fill="none" stroke="none"/><text fill="#000000" stroke="none" font-family="Arial" font-size="13px" font-style="normal" font-weight="bold" text-decoration="none" x="457.0263671875" y="398.5">Users</text></g></g><g transform="translate(-134,-246) scale(1,1)"><rect fill="#C0C0C0" stroke="none" x="591" y="388" width="54.0302734375" height="32" opacity="0.2"/></g><g transform="translate(-134,-246) scale(1,1)"><rect fill="#ffffff" stroke="none" x="584" y="381" width="54.0302734375" height="32"/></g><g transform="translate(-134,-246) scale(1,1)"><path fill="none" stroke="#000000" d="M 584 381 L 638.0302734375 381 L 638.0302734375 413 L 584 413 L 584 381 Z Z" stroke-miterlimit="10"/></g><g transform="translate(-134,-246) scale(1,1)"><g><path fill="none" stroke="none"/><text fill="#000000" stroke="none" font-family="Arial" font-size="13px" font-style="normal" font-weight="bold" text-decoration="none" x="589.947265625" y="398.5">Wallets</text></g></g><g transform="translate(-134,-246) scale(1,1)"><rect fill="#C0C0C0" stroke="none" x="151" y="388" width="80.02392578125" height="32" opacity="0.2"/></g><g transform="translate(-134,-246) scale(1,1)"><rect fill="#ffffff" stroke="none" x="144" y="381" width="80.02392578125" height="32"/></g><g transform="translate(-134,-246) scale(1,1)"><path fill="none" stroke="#000000" d="M 144 381 L 224.02392578125 381 L 224.02392578125 413 L 144 413 L 144 381 Z Z" stroke-miterlimit="10"/></g><g transform="translate(-134,-246) scale(1,1)"><g><path fill="none" stroke="none"/><text fill="#000000" stroke="none" font-family="Arial" font-size="13px" font-style="normal" font-weight="bold" text-decoration="none" x="150.293212890625" y="398.5">OpenWallet</text></g></g><g transform="translate(-134,-246) scale(1,1)"><path fill="none" stroke="#000000" d="M 383 400 L 448 400" stroke-miterlimit="10"/></g><g transform="translate(-134,-246) scale(1,1)"><path fill="none" stroke="#000000" d="M 434 400 L 448 407" stroke-miterlimit="10"/></g><g transform="translate(-134,-246) scale(1,1)"><path fill="none" stroke="#000000" d="M 434 400 L 448 393" stroke-miterlimit="10"/></g><g transform="translate(-134,-246) scale(1,1)"><path fill="#FFFFFF" stroke="none" d="M 419 400 C 419 396.1340064 422.1340064 393 426 393 C 429.8659936 393 433 396.1340064 433 400 C 433 403.8659936 429.8659936 407 426 407 C 422.1340064 407 419 403.8659936 419 400 Z"/></g><g transform="translate(-134,-246) scale(1,1)"><path fill="none" stroke="#000000" d="M 419 400 C 419 396.1340064 422.1340064 393 426 393 C 429.8659936 393 433 396.1340064 433 400 C 433 403.8659936 429.8659936 407 426 407 C 422.1340064 407 419 403.8659936 419 400 Z" stroke-miterlimit="10"/></g><g transform="translate(-134,-246) scale(1,1)"><path fill="none" stroke="#000000" d="M 390 393 L 390 407" stroke-miterlimit="10"/></g><g transform="translate(-134,-246) scale(1,1)"><path fill="none" stroke="#000000" d="M 397 393 L 397 407" stroke-miterlimit="10"/></g><g transform="translate(-134,-246) scale(1,1)"><g><path fill="none" stroke="none"/><text fill="#000000" stroke="none" font-family="Arial" font-size="13px" font-style="normal" font-weight="normal" text-decoration="none" x="396.937744140625" y="391.5">1 to M</text></g></g><g transform="translate(-134,-246) scale(1,1)"><g><path fill="none" stroke="none"/><text fill="#000000" stroke="none" font-family="Arial" font-size="13px" font-style="normal" font-weight="normal" text-decoration="none" x="407.5" y="391.5"></text></g></g><g transform="translate(-134,-246) scale(1,1)"><g><path fill="none" stroke="none"/><text fill="#000000" stroke="none" font-family="Arial" font-size="13px" font-style="normal" font-weight="normal" text-decoration="none" x="421.5" y="391.5"></text></g></g><g transform="translate(-134,-246) scale(1,1)"><path fill="none" stroke="#000000" d="M 224 400 L 296 400" stroke-miterlimit="10"/></g><g transform="translate(-134,-246) scale(1,1)"><path fill="none" stroke="#000000" d="M 282 400 L 296 407" stroke-miterlimit="10"/></g><g transform="translate(-134,-246) scale(1,1)"><path fill="none" stroke="#000000" d="M 282 400 L 296 393" stroke-miterlimit="10"/></g><g transform="translate(-134,-246) scale(1,1)"><path fill="#FFFFFF" stroke="none" d="M 267 400 C 267 396.1340064 270.1340064 393 274 393 C 277.8659936 393 281 396.1340064 281 400 C 281 403.8659936 277.8659936 407 274 407 C 270.1340064 407 267 403.8659936 267 400 Z"/></g><g transform="translate(-134,-246) scale(1,1)"><path fill="none" stroke="#000000" d="M 267 400 C 267 396.1340064 270.1340064 393 274 393 C 277.8659936 393 281 396.1340064 281 400 C 281 403.8659936 277.8659936 407 274 407 C 270.1340064 407 267 403.8659936 267 400 Z" stroke-miterlimit="10"/></g><g transform="translate(-134,-246) scale(1,1)"><path fill="none" stroke="#000000" d="M 231 393 L 231 407" stroke-miterlimit="10"/></g><g transform="translate(-134,-246) scale(1,1)"><path fill="none" stroke="#000000" d="M 238 393 L 238 407" stroke-miterlimit="10"/></g><g transform="translate(-134,-246) scale(1,1)"><g><path fill="none" stroke="none"/><text fill="#000000" stroke="none" font-family="Arial" font-size="13px" font-style="normal" font-weight="normal" text-decoration="none" x="237.937744140625" y="387.5">1 to M</text></g></g><g transform="translate(-134,-246) scale(1,1)"><g><path fill="none" stroke="none"/><text fill="#000000" stroke="none" font-family="Arial" font-size="13px" font-style="normal" font-weight="normal" text-decoration="none" x="248.5" y="391.5"></text></g></g><g transform="translate(-134,-246) scale(1,1)"><g><path fill="none" stroke="none"/><text fill="#000000" stroke="none" font-family="Arial" font-size="13px" font-style="normal" font-weight="normal" text-decoration="none" x="269.5" y="391.5"></text></g></g><g transform="translate(-134,-246) scale(1,1)"><rect fill="#C0C0C0" stroke="none" x="711" y="383" width="94.97265625" height="32" opacity="0.2"/></g><g transform="translate(-134,-246) scale(1,1)"><rect fill="#ffffff" stroke="none" x="704" y="376" width="94.97265625" height="32"/></g><g transform="translate(-134,-246) scale(1,1)"><path fill="none" stroke="#000000" d="M 704 376 L 798.97265625 376 L 798.97265625 408 L 704 408 L 704 376 Z Z" stroke-miterlimit="10"/></g><g transform="translate(-134,-246) scale(1,1)"><g><path fill="none" stroke="none"/><text fill="#000000" stroke="none" font-family="Arial" font-size="13px" font-style="normal" font-weight="bold" text-decoration="none" x="712.11181640625" y="393.5">Digital Assets</text></g></g><g transform="translate(-134,-246) scale(1,1)"><path fill="none" stroke="#000000" d="M 500 400 L 584 400" stroke-miterlimit="10"/></g><g transform="translate(-134,-246) scale(1,1)"><path fill="none" stroke="#000000" d="M 570 400 L 584 407" stroke-miterlimit="10"/></g><g transform="translate(-134,-246) scale(1,1)"><path fill="none" stroke="#000000" d="M 570 400 L 584 393" stroke-miterlimit="10"/></g><g transform="translate(-134,-246) scale(1,1)"><path fill="#FFFFFF" stroke="none" d="M 555 400 C 555 396.1340064 558.1340064 393 562 393 C 565.8659936 393 569 396.1340064 569 400 C 569 403.8659936 565.8659936 407 562 407 C 558.1340064 407 555 403.8659936 555 400 Z"/></g><g transform="translate(-134,-246) scale(1,1)"><path fill="none" stroke="#000000" d="M 555 400 C 555 396.1340064 558.1340064 393 562 393 C 565.8659936 393 569 396.1340064 569 400 C 569 403.8659936 565.8659936 407 562 407 C 558.1340064 407 555 403.8659936 555 400 Z" stroke-miterlimit="10"/></g><g transform="translate(-134,-246) scale(1,1)"><path fill="none" stroke="#000000" d="M 507 393 L 507 407" stroke-miterlimit="10"/></g><g transform="translate(-134,-246) scale(1,1)"><path fill="none" stroke="#000000" d="M 514 393 L 514 407" stroke-miterlimit="10"/></g><g transform="translate(-134,-246) scale(1,1)"><g><path fill="none" stroke="none"/><text fill="#000000" stroke="none" font-family="Arial" font-size="13px" font-style="normal" font-weight="normal" text-decoration="none" x="511.937744140625" y="390.5">1 to M</text></g></g><g transform="translate(-134,-246) scale(1,1)"><g><path fill="none" stroke="none"/><text fill="#000000" stroke="none" font-family="Arial" font-size="13px" font-style="normal" font-weight="normal" text-decoration="none" x="524.5" y="391.5"></text></g></g><g transform="translate(-134,-246) scale(1,1)"><g><path fill="none" stroke="none"/><text fill="#000000" stroke="none" font-family="Arial" font-size="13px" font-style="normal" font-weight="normal" text-decoration="none" x="557.5" y="391.5"></text></g></g><g transform="translate(-134,-246) scale(1,1)"><rect fill="#C0C0C0" stroke="none" x="711" y="319" width="56.68359375" height="32" opacity="0.2"/></g><g transform="translate(-134,-246) scale(1,1)"><rect fill="#ffffff" stroke="none" x="704" y="312" width="56.68359375" height="32"/></g><g transform="translate(-134,-246) scale(1,1)"><path fill="none" stroke="#000000" d="M 704 312 L 760.68359375 312 L 760.68359375 344 L 704 344 L 704 312 Z Z" stroke-miterlimit="10"/></g><g transform="translate(-134,-246) scale(1,1)"><g><path fill="none" stroke="none"/><text fill="#000000" stroke="none" font-family="Arial" font-size="13px" font-style="normal" font-weight="bold" text-decoration="none" x="709.947265625" y="329.5">Owners</text></g></g><g transform="translate(-134,-246) scale(1,1)"><rect fill="#C0C0C0" stroke="none" x="711" y="519" width="128.18359375" height="32" opacity="0.2"/></g><g transform="translate(-134,-246) scale(1,1)"><rect fill="#ffffff" stroke="none" x="704" y="512" width="128.18359375" height="32"/></g><g transform="translate(-134,-246) scale(1,1)"><path fill="none" stroke="#000000" d="M 704 512 L 832.18359375 512 L 832.18359375 544 L 704 544 L 704 512 Z Z" stroke-miterlimit="10"/></g><g transform="translate(-134,-246) scale(1,1)"><g><path fill="none" stroke="none"/><text fill="#000000" stroke="none" font-family="Arial" font-size="13px" font-style="normal" font-weight="bold" text-decoration="none" x="711.73095703125" y="529.5">Upgrade &amp;  Migrate</text></g></g><g transform="translate(-134,-246) scale(1,1)"><rect fill="#C0C0C0" stroke="none" x="863" y="319" width="81.22998046875" height="32" opacity="0.2"/></g><g transform="translate(-134,-246) scale(1,1)"><rect fill="#ffffff" stroke="none" x="856" y="312" width="81.22998046875" height="32"/></g><g transform="translate(-134,-246) scale(1,1)"><path fill="none" stroke="#000000" d="M 856 312 L 937.22998046875 312 L 937.22998046875 344 L 856 344 L 856 312 Z Z" stroke-miterlimit="10"/></g><g transform="translate(-134,-246) scale(1,1)"><g><path fill="none" stroke="none"/><text fill="#000000" stroke="none" font-family="Arial" font-size="13px" font-style="normal" font-weight="bold" text-decoration="none" x="863.740478515625" y="329.5">Constraints</text></g></g><g transform="translate(-134,-246) scale(1,1)"><rect fill="#C0C0C0" stroke="none" x="711" y="455" width="57.4072265625" height="32" opacity="0.2"/></g><g transform="translate(-134,-246) scale(1,1)"><rect fill="#ffffff" stroke="none" x="704" y="448" width="57.4072265625" height="32"/></g><g transform="translate(-134,-246) scale(1,1)"><path fill="none" stroke="#000000" d="M 704 448 L 761.4072265625 448 L 761.4072265625 480 L 704 480 L 704 448 Z Z" stroke-miterlimit="10"/></g><g transform="translate(-134,-246) scale(1,1)"><g><path fill="none" stroke="none"/><text fill="#000000" stroke="none" font-family="Arial" font-size="13px" font-style="normal" font-weight="bold" text-decoration="none" x="710.30908203125" y="465.5">Destory</text></g></g><g transform="translate(-134,-246) scale(1,1)"><path fill="none" stroke="#000000" d="M 624 381 L 624 336 M 624 336 A 8 8 0 0 1 632 328 L 704 328" stroke-miterlimit="10"/></g><g transform="translate(-134,-246) scale(1,1)"><path fill="none" stroke="#000000" d="M 690 328 L 704 335" stroke-miterlimit="10"/></g><g transform="translate(-134,-246) scale(1,1)"><path fill="none" stroke="#000000" d="M 690 328 L 704 321" stroke-miterlimit="10"/></g><g transform="translate(-134,-246) scale(1,1)"><path fill="#FFFFFF" stroke="none" d="M 675 328 C 675 324.1340064 678.1340064 321 682 321 C 685.8659936 321 689 324.1340064 689 328 C 689 331.8659936 685.8659936 335 682 335 C 678.1340064 335 675 331.8659936 675 328 Z"/></g><g transform="translate(-134,-246) scale(1,1)"><path fill="none" stroke="#000000" d="M 675 328 C 675 324.1340064 678.1340064 321 682 321 C 685.8659936 321 689 324.1340064 689 328 C 689 331.8659936 685.8659936 335 682 335 C 678.1340064 335 675 331.8659936 675 328 Z" stroke-miterlimit="10"/></g><g transform="translate(-134,-246) scale(1,1)"><path fill="none" stroke="#000000" d="M 617 374 L 631 374" stroke-miterlimit="10"/></g><g transform="translate(-134,-246) scale(1,1)"><path fill="none" stroke="#000000" d="M 617 367 L 631 367" stroke-miterlimit="10"/></g><g transform="translate(-134,-246) scale(1,1)"><g><path fill="none" stroke="none"/><text fill="#000000" stroke="none" font-family="Arial" font-size="13px" font-style="normal" font-weight="normal" text-decoration="none" x="639.937744140625" y="316.5">1 to M</text></g></g><g transform="translate(-134,-246) scale(1,1)"><g><path fill="none" stroke="none"/><text fill="#000000" stroke="none" font-family="Arial" font-size="13px" font-style="normal" font-weight="normal" text-decoration="none" x="608.5" y="361.5"></text></g></g><g transform="translate(-134,-246) scale(1,1)"><g><path fill="none" stroke="none"/><text fill="#000000" stroke="none" font-family="Arial" font-size="13px" font-style="normal" font-weight="normal" text-decoration="none" x="677.5" y="319.5"></text></g></g><g transform="translate(-134,-246) scale(1,1)"><path fill="none" stroke="#000000" d="M 638 392 L 704 392" stroke-miterlimit="10"/></g><g transform="translate(-134,-246) scale(1,1)"><path fill="none" stroke="#000000" d="M 690 392 L 704 399" stroke-miterlimit="10"/></g><g transform="translate(-134,-246) scale(1,1)"><path fill="none" stroke="#000000" d="M 690 392 L 704 385" stroke-miterlimit="10"/></g><g transform="translate(-134,-246) scale(1,1)"><path fill="#FFFFFF" stroke="none" d="M 675 392 C 675 388.1340064 678.1340064 385 682 385 C 685.8659936 385 689 388.1340064 689 392 C 689 395.8659936 685.8659936 399 682 399 C 678.1340064 399 675 395.8659936 675 392 Z"/></g><g transform="translate(-134,-246) scale(1,1)"><path fill="none" stroke="#000000" d="M 675 392 C 675 388.1340064 678.1340064 385 682 385 C 685.8659936 385 689 388.1340064 689 392 C 689 395.8659936 685.8659936 399 682 399 C 678.1340064 399 675 395.8659936 675 392 Z" stroke-miterlimit="10"/></g><g transform="translate(-134,-246) scale(1,1)"><path fill="none" stroke="#000000" d="M 645 385 L 645 399" stroke-miterlimit="10"/></g><g transform="translate(-134,-246) scale(1,1)"><path fill="none" stroke="#000000" d="M 652 385 L 652 399" stroke-miterlimit="10"/></g><g transform="translate(-134,-246) scale(1,1)"><g><path fill="none" stroke="none"/><text fill="#000000" stroke="none" font-family="Arial" font-size="13px" font-style="normal" font-weight="normal" text-decoration="none" x="647.937744140625" y="371.5">1 to M</text></g></g><g transform="translate(-134,-246) scale(1,1)"><g><path fill="none" stroke="none"/><text fill="#000000" stroke="none" font-family="Arial" font-size="13px" font-style="normal" font-weight="normal" text-decoration="none" x="662.5" y="383.5"></text></g></g><g transform="translate(-134,-246) scale(1,1)"><g><path fill="none" stroke="none"/><text fill="#000000" stroke="none" font-family="Arial" font-size="13px" font-style="normal" font-weight="normal" text-decoration="none" x="677.5" y="383.5"></text></g></g><g transform="translate(-134,-246) scale(1,1)"><path fill="none" stroke="#000000" d="M 624 413 L 624 456 M 624 456 A 8 8 0 0 0 632 464 L 704 464" stroke-miterlimit="10"/></g><g transform="translate(-134,-246) scale(1,1)"><path fill="none" stroke="#000000" d="M 697 471 L 697 457" stroke-miterlimit="10"/></g><g transform="translate(-134,-246) scale(1,1)"><path fill="none" stroke="#000000" d="M 690 471 L 690 457" stroke-miterlimit="10"/></g><g transform="translate(-134,-246) scale(1,1)"><path fill="none" stroke="#000000" d="M 631 420 L 617 420" stroke-miterlimit="10"/></g><g transform="translate(-134,-246) scale(1,1)"><path fill="none" stroke="#000000" d="M 631 427 L 617 427" stroke-miterlimit="10"/></g><g transform="translate(-134,-246) scale(1,1)"><g><path fill="none" stroke="none"/><text fill="#000000" stroke="none" font-family="Arial" font-size="13px" font-style="normal" font-weight="normal" text-decoration="none" x="639.7373046875" y="455.5">1 to 1</text></g></g><g transform="translate(-134,-246) scale(1,1)"><g><path fill="none" stroke="none"/><text fill="#000000" stroke="none" font-family="Arial" font-size="13px" font-style="normal" font-weight="normal" text-decoration="none" x="638.5" y="444.5"></text></g></g><g transform="translate(-134,-246) scale(1,1)"><g><path fill="none" stroke="none"/><text fill="#000000" stroke="none" font-family="Arial" font-size="13px" font-style="normal" font-weight="normal" text-decoration="none" x="677.5" y="455.5"></text></g></g><g transform="translate(-134,-246) scale(1,1)"><path fill="none" stroke="#000000" d="M 608 413 L 608 520 M 608 520 A 8 8 0 0 0 616 528 L 704 528" stroke-miterlimit="10"/></g><g transform="translate(-134,-246) scale(1,1)"><path fill="none" stroke="#000000" d="M 697 535 L 697 521" stroke-miterlimit="10"/></g><g transform="translate(-134,-246) scale(1,1)"><path fill="none" stroke="#000000" d="M 690 535 L 690 521" stroke-miterlimit="10"/></g><g transform="translate(-134,-246) scale(1,1)"><path fill="none" stroke="#000000" d="M 615 420 L 601 420" stroke-miterlimit="10"/></g><g transform="translate(-134,-246) scale(1,1)"><path fill="none" stroke="#000000" d="M 615 427 L 601 427" stroke-miterlimit="10"/></g><g transform="translate(-134,-246) scale(1,1)"><g><path fill="none" stroke="none"/><text fill="#000000" stroke="none" font-family="Arial" font-size="13px" font-style="normal" font-weight="normal" text-decoration="none" x="627.7373046875" y="519.5">1 to 1</text></g></g><g transform="translate(-134,-246) scale(1,1)"><g><path fill="none" stroke="none"/><text fill="#000000" stroke="none" font-family="Arial" font-size="13px" font-style="normal" font-weight="normal" text-decoration="none" x="622.5" y="444.5"></text></g></g><g transform="translate(-134,-246) scale(1,1)"><g><path fill="none" stroke="none"/><text fill="#000000" stroke="none" font-family="Arial" font-size="13px" font-style="normal" font-weight="normal" text-decoration="none" x="677.5" y="519.5"></text></g></g><g transform="translate(-134,-246) scale(1,1)"><path fill="none" stroke="#000000" d="M 792 352 L 792 336 M 792 336 A 8 8 0 0 1 800 328 L 856 328" stroke-miterlimit="10"/></g><g transform="translate(-134,-246) scale(1,1)"><path fill="none" stroke="#000000" d="M 849 335 L 849 321" stroke-miterlimit="10"/></g><g transform="translate(-134,-246) scale(1,1)"><path fill="none" stroke="#000000" d="M 842 335 L 842 321" stroke-miterlimit="10"/></g><g transform="translate(-134,-246) scale(1,1)"><path fill="none" stroke="#000000" d="M 785 345 L 799 345" stroke-miterlimit="10"/></g><g transform="translate(-134,-246) scale(1,1)"><path fill="none" stroke="#000000" d="M 785 338 L 799 338" stroke-miterlimit="10"/></g><g transform="translate(-134,-246) scale(1,1)"><g><path fill="none" stroke="none"/><text fill="#000000" stroke="none" font-family="Arial" font-size="13px" font-style="normal" font-weight="normal" text-decoration="none" x="799.7373046875" y="319.5">1 to 1</text></g></g><g transform="translate(-134,-246) scale(1,1)"><g><path fill="none" stroke="none"/><text fill="#000000" stroke="none" font-family="Arial" font-size="13px" font-style="normal" font-weight="normal" text-decoration="none" x="776.5" y="332.5"></text></g></g><g transform="translate(-134,-246) scale(1,1)"><g><path fill="none" stroke="none"/><text fill="#000000" stroke="none" font-family="Arial" font-size="13px" font-style="normal" font-weight="normal" text-decoration="none" x="829.5" y="319.5"></text></g></g><g transform="translate(-134,-246) scale(1,1)"><path fill="none" stroke="#000000" d="M 761 328 L 784 328 M 784 328 A 8 8 0 0 1 792 336 L 792 376" stroke-miterlimit="10"/></g><g transform="translate(-134,-246) scale(1,1)"><path fill="none" stroke="#000000" d="M 792 362 L 785 376" stroke-miterlimit="10"/></g><g transform="translate(-134,-246) scale(1,1)"><path fill="none" stroke="#000000" d="M 792 362 L 799 376" stroke-miterlimit="10"/></g><g transform="translate(-134,-246) scale(1,1)"><path fill="#FFFFFF" stroke="none" d="M 785 354 C 785 350.1340064 788.1340064 347 792 347 C 795.8659936 347 799 350.1340064 799 354 C 799 357.8659936 795.8659936 361 792 361 C 788.1340064 361 785 357.8659936 785 354 Z"/></g><g transform="translate(-134,-246) scale(1,1)"><path fill="none" stroke="#000000" d="M 785 354 C 785 350.1340064 788.1340064 347 792 347 C 795.8659936 347 799 350.1340064 799 354 C 799 357.8659936 795.8659936 361 792 361 C 788.1340064 361 785 357.8659936 785 354 Z" stroke-miterlimit="10"/></g><g transform="translate(-134,-246) scale(1,1)"><path fill="none" stroke="#000000" d="M 775 328 L 761 321" stroke-miterlimit="10"/></g><g transform="translate(-134,-246) scale(1,1)"><path fill="none" stroke="#000000" d="M 775 328 L 761 335" stroke-miterlimit="10"/></g><g transform="translate(-134,-246) scale(1,1)"><path fill="#FFFFFF" stroke="none" d="M 776 328 C 776 324.1340064 779.1340064 321 783 321 C 786.8659936 321 790 324.1340064 790 328 C 790 331.8659936 786.8659936 335 783 335 C 779.1340064 335 776 331.8659936 776 328 Z"/></g><g transform="translate(-134,-246) scale(1,1)"><path fill="none" stroke="#000000" d="M 776 328 C 776 324.1340064 779.1340064 321 783 321 C 786.8659936 321 790 324.1340064 790 328 C 790 331.8659936 786.8659936 335 783 335 C 779.1340064 335 776 331.8659936 776 328 Z" stroke-miterlimit="10"/></g><g transform="translate(-134,-246) scale(1,1)"><g><path fill="none" stroke="none"/><text fill="#000000" stroke="none" font-family="Arial" font-size="13px" font-style="normal" font-weight="normal" text-decoration="none" x="785.5" y="319.5"></text></g></g><g transform="translate(-134,-246) scale(1,1)"><g><path fill="none" stroke="none"/><text fill="#000000" stroke="none" font-family="Arial" font-size="13px" font-style="normal" font-weight="normal" text-decoration="none" x="806.5" y="356.5"></text></g></g></g></svg>